<?xml version="1.0" standalone="no"?>
<!DOCTYPE svg PUBLIC "-//W3C//DTD SVG 1.1//EN" "http://www.w3.org/Graphics/SVG/1.1/DTD/svg11.dtd" >
<svg xmlns="http://www.w3.org/2000/svg" xmlns:xlink="http://www.w3.org/1999/xlink" version="1.1">
<metadata>
Created by FontForge 20160405 at Thu Nov 22 14:16:23 2018
 By www-data
(c)2010
</metadata>
<defs>
<font id="EuroCapsRUSbyme" horiz-adv-x="1024" >
  <font-face 
    font-family="Euro Caps [RUS by me]"
    font-weight="400"
    font-variant="small-caps"
    font-stretch="normal"
    units-per-em="2048"
    panose-1="0 0 0 0 0 0 0 0 0 0"
    ascent="1536"
    descent="-512"
    x-height="1170"
    cap-height="1170"
    bbox="-232 -636 2564 1833"
    underline-thickness="107"
    underline-position="-252"
    unicode-range="U+0020-F002"
  />
<missing-glyph horiz-adv-x="616" 
d="M62 0v1365h492v-1365h-492zM492 62v1241h-368v-1241h368z" />
    <glyph glyph-name=".notdef" horiz-adv-x="616" 
d="M62 0v1365h492v-1365h-492zM492 62v1241h-368v-1241h368z" />
    <glyph glyph-name="glyph1" horiz-adv-x="1152" 
 />
    <glyph glyph-name="glyph2" 
d="M516 1492l-367 208l43 88l324 -142l309 142l49 -88z" />
    <glyph glyph-name="glyph3" 
d="M397 1718v-155h-184v155h184zM812 1718v-155h-184v155h184z" />
    <glyph glyph-name="glyph4" 
d="M457 1521v-155h-184v155h184zM750 1521v-155h-184v155h184z" />
    <glyph glyph-name="glyph5" 
d="M178 1783h111q13 -61 55 -100q73 -67 169 -67q95 0 168 67q42 39 55 100h111q-14 -98 -68 -163q-103 -123 -266 -123q-176 0 -278 137q-44 59 -57 149z" />
    <glyph glyph-name="glyph6" 
d="M516 1833q76 0 130 -59q46 -51 46 -120q0 -80 -59 -133q-52 -46 -120 -46q-80 0 -134 59q-46 51 -46 121q0 78 59 132q51 46 124 46zM511 1755q-43 0 -74 -33q-26 -29 -26 -68q0 -45 34 -75q28 -26 68 -26q45 0 75 33q26 29 26 69q0 44 -34 74q-28 26 -69 26z" />
    <glyph glyph-name="glyph7" 
d="M776 1745l89 -57q-97 -157 -214 -157q-52 0 -159 47q-95 42 -139 42q-38 0 -62 -26q-15 -17 -37 -58l-95 53q34 61 59 90q56 65 139 65q47 0 155 -46q104 -45 142 -45q63 0 122 92z" />
    <glyph glyph-name="glyph8" 
d="M516 1788l358 -208l-49 -88l-309 142l-324 -142l-43 88z" />
    <glyph glyph-name="glyph9" 
d="M279 1740l375 -101l-20 -100l-389 66z" />
    <glyph glyph-name="glyph10" 
d="M745 1740l34 -135l-390 -66l-19 100z" />
    <glyph glyph-name="glyph11" 
d="M474 1718v-155h-176v155h176zM725 1718v-155h-176v155h176z" />
    <glyph glyph-name="glyph12" 
d="M604 1718v-155h-184v155h184z" />
    <glyph glyph-name="glyph13" 
d="M528 -309l128 -71l-183 -256l-104 55z" />
    <glyph glyph-name="glyph14" horiz-adv-x="616" 
 />
    <glyph glyph-name="NULL" horiz-adv-x="0" 
 />
    <glyph glyph-name="nonmarkingreturn" horiz-adv-x="616" 
 />
    <glyph glyph-name="space" unicode=" " horiz-adv-x="616" 
 />
    <glyph glyph-name="space" unicode="&#xa0;" horiz-adv-x="616" 
 />
    <glyph glyph-name="exclam" unicode="!" horiz-adv-x="533" 
d="M363 1365l-23 -969h-149l-20 969h192zM360 212v-212h-185v212h185z" />
    <glyph glyph-name="quotedbl" unicode="&#x22;" horiz-adv-x="662" 
d="M222 819h-99l-19 546h138zM538 819h-99l-20 546h138z" />
    <glyph glyph-name="numbersign" unicode="#" horiz-adv-x="1049" 
d="M928 465l-18 -110h-186l-57 -355h-119l56 355h-230l-57 -355h-118l56 355h-187l17 110h187l37 235h-186l17 110h187l55 351h119l-55 -351h230l56 351h119l-55 -351h185l-18 -110h-185l-37 -235h187zM659 700h-231l-37 -235h231z" />
    <glyph glyph-name="dollar" unicode="$" horiz-adv-x="1186" 
d="M658 -131h-125v131h-47q-109 -1 -159 6t-95 29q-63 31 -94 83t-40 140q-4 44 -5 116v14h156v-20q1 -77 5 -114q6 -57 38.5 -85t97.5 -32q111 -3 143 -4v401q-188 1 -263 26q-97 32 -133 113q-31 68 -31 190q0 166 68 236q72 76 257 86q39 2 102 3v108h125v-108
q26 -1 35 -1q160 -1 217 -21q94 -33 132 -118q26 -58 26 -161q0 -20 -1 -51h-153l-1 22q-2 89 -6 107q-10 39 -30 53q-39 27 -144 30q-27 1 -75 1v-376q191 -2 278 -34q103 -37 137 -143q21 -64 21 -162q0 -126 -40 -199q-51 -94 -182 -121q-42 -8 -214 -14v-131zM533 1050
q-79 -1 -123 -3q-95 -4 -124 -46q-28 -38 -28 -128q0 -140 59 -172q45 -24 160 -27q19 -1 56 -1v377zM658 132h27q147 0 204 42q54 41 54 171q0 81 -24 124q-24 45 -107 56q-42 6 -154 7v-400z" />
    <glyph glyph-name="percent" unicode="%" horiz-adv-x="1813" 
d="M433 1196q142 0 199 -15q106 -29 135 -111q16 -46 16 -237q0 -176 -12 -224q-18 -74 -87 -106q-60 -28 -134 -31q-52 -3 -124 -3q-150 0 -207 15q-106 29 -135 111q-16 46 -16 237q0 175 12 224q18 74 87 106q61 28 134 31q54 3 132 3zM423 1077q-110 0 -152 -9
q-59 -12 -66 -89q-2 -18 -4 -146q2 -129 4 -147q7 -77 66 -89q42 -9 155 -9q112 0 154 9q59 12 66 89q2 18 4 146q-2 129 -4 147q-8 77 -66 89q-42 9 -157 9zM1299 1188l-654 -1188h-131l649 1188h136zM1395 718q141 0 199 -15q106 -29 135 -111q16 -46 16 -237
q0 -175 -12 -223q-18 -74 -87 -106q-60 -28 -134 -31q-52 -3 -124 -3q-150 0 -207 15q-106 29 -135 111q-16 46 -16 236q0 175 12 224q18 75 87 106q61 28 134 31q54 3 132 3zM1385 599q-110 0 -152 -9q-59 -12 -66 -89q-2 -18 -4 -146q2 -129 4 -146q7 -77 66 -89
q42 -9 155 -9q112 0 154 9q59 12 66 89q2 18 4 146q-2 128 -4 146q-8 77 -66 89q-42 9 -157 9z" />
    <glyph glyph-name="ampersand" unicode="&#x26;" horiz-adv-x="1308" 
d="M914 534h158q3 -78 3 -103q0 -87 -12 -156l204 -168l-90 -114l-165 137q-32 -63 -91 -97q-68 -37 -143 -43q-69 -6 -180 -6q-211 0 -285 18q-148 35 -190 174q-21 69 -21 195q0 196 85 257q50 36 160 51q-37 33 -56 63q-28 47 -28 128q0 172 78 232q79 60 286 60
q104 0 165 -15t101 -51q71 -64 71 -218q0 -31 -2 -88h-156q-1 45 -1 58q-1 115 -25 141q-29 31 -155 31q-141 0 -176 -31q-26 -24 -26 -93q0 -66 23 -99q16 -22 66 -63l405 -338q1 31 1 46q0 26 -4 92zM458 583q-107 -15 -142 -33q-29 -15 -41.5 -58t-12.5 -127
q0 -169 52 -209q34 -26 118 -28q82 -1 168 -1q142 0 192 14q76 21 97 87z" />
    <glyph glyph-name="quotesingle" unicode="'" horiz-adv-x="347" 
d="M222 819h-99l-19 546h138z" />
    <glyph glyph-name="parenleft" unicode="(" horiz-adv-x="673" 
d="M564 -218v-148q-41 -2 -61 -2q-235 0 -310 185q-34 84 -40 250q-2 51 -2 506q0 516 8 594q12 119 46.5 189.5t99.5 110.5q76 47 205 47q19 0 54 -1v-148q-112 -1 -160 -31q-50 -35 -63 -152q-10 -87 -9 -411v-395q2 -420 20 -476q21 -80 86 -103q44 -15 126 -15z" />
    <glyph glyph-name="parenright" unicode=")" horiz-adv-x="673" 
d="M109 1365v148q35 1 54 1q125 0 201.5 -44.5t115.5 -140.5q34 -84 40 -250q2 -51 2 -506q0 -516 -8 -594q-12 -119 -46.5 -189.5t-99.5 -110.5q-77 -47 -198 -47q-20 0 -61 2v148q113 0 160 31q50 35 63 152q10 83 9 411v395q-2 419 -20 476q-21 80 -86 103
q-44 15 -126 15z" />
    <glyph glyph-name="asterisk" unicode="*" horiz-adv-x="998" 
d="M916 1032l-321 -119l191 -273l-92 -68l-193 282l-209 -282l-91 68l200 273l-319 119l40 115l320 -115v333h115v-333l318 115z" />
    <glyph glyph-name="plus" unicode="+" horiz-adv-x="1079" 
d="M469 100v409h-403v129h403v408h140v-408h403v-129h-403v-409h-140z" />
    <glyph glyph-name="comma" unicode="," horiz-adv-x="454" 
d="M331 212v-228q0 -111 -26 -152q-38 -62 -133 -62q-18 0 -49 2v88q53 3 75 19q28 21 28 76q0 15 -2 45h-78v212h185z" />
    <glyph glyph-name="hyphen" unicode="-" horiz-adv-x="513" 
d="M20 645h473v-152h-473v152z" />
    <glyph glyph-name="hyphen" unicode="&#xad;" horiz-adv-x="513" 
d="M20 645h473v-152h-473v152z" />
    <glyph glyph-name="period" unicode="." horiz-adv-x="431" 
d="M308 212v-212h-185v212h185z" />
    <glyph glyph-name="slash" unicode="/" horiz-adv-x="1212" 
d="M1199 1365l-1054 -1560h-131l1054 1560h131z" />
    <glyph glyph-name="zero" unicode="0" horiz-adv-x="1152" 
d="M587 1199q189 0 264 -25q135 -46 172 -181q19 -66 20 -185q1 -92 1 -215q0 -249 -6 -313q-16 -158 -104 -224q-73 -56 -192 -64q-67 -4 -166 -4q-201 0 -276 25q-135 46 -172 181q-18 66 -20 184q-1 91 -1 212q0 253 6 317q16 158 104 225q74 56 192 63q69 4 178 4z
M570 1059q-148 0 -209 -18q-67 -20 -87 -106q-15 -63 -15 -341q0 -195 6 -272q6 -82 27.5 -122t68.5 -54q60 -18 215 -18t215 18q67 20 87 106q15 64 15 346q0 187 -6 267q-7 98 -37 136q-34 46 -130 53q-67 5 -150 5z" />
    <glyph glyph-name="one" unicode="1" horiz-adv-x="1150" 
d="M854 1188v-1188h-157v1010l-287 -287l-114 114l351 351h207z" />
    <glyph glyph-name="two" unicode="2" horiz-adv-x="1074" 
d="M964 137v-137h-863v231q0 95 17 150.5t57 93.5q57 51 164 73q58 12 188 26q154 16 192 29q66 22 82 77q15 50 15 158q0 136 -39 176q-44 46 -216 46q-150 0 -217 -18q-33 -9 -50 -25.5t-27 -50.5q-9 -30 -9 -133v-68h-155v68q0 226 95 298q89 68 361 68q243 0 330 -85
q56 -54 69 -152q9 -63 9 -143q0 -137 -27 -205q-41 -101 -153 -140q-71 -25 -234 -42q-129 -13 -165 -21q-52 -11 -77 -28t-36 -51q-16 -47 -17 -142v-53h706z" />
    <glyph glyph-name="three" unicode="3" horiz-adv-x="1112" 
d="M433 538v140h205q115 0 149 47q25 34 25 125q0 98 -19 148q-10 27 -32.5 39t-71.5 18q-43 4 -154 4t-159.5 -7t-71.5 -27q-36 -30 -36 -153v-68h-151v68q0 196 89 265q64 49 173 57q70 5 163 5q173 0 243 -19q128 -34 164 -137q20 -57 20 -151q0 -163 -49 -222
q-32 -39 -96 -59q65 -16 99 -46q68 -59 68 -227q0 -197 -77 -270q-55 -52 -143 -66q-94 -14 -218 -14q-204 0 -288 28q-110 37 -148 140q-20 54 -20 181v68h154v-68q0 -135 38 -175q24 -24 100 -30q52 -4 199 -4q175 0 215 46q31 36 31 182q0 102 -37 141q-29 31 -79 37
q-34 4 -80 4h-205z" />
    <glyph glyph-name="four" unicode="4" horiz-adv-x="1114" 
d="M869 1188v-782h174v-138h-174v-268h-157v268h-650v173l586 747h221zM712 406v647l-500 -647h500z" />
    <glyph glyph-name="five" unicode="5" horiz-adv-x="1116" 
d="M952 1188v-138h-656v-302q39 38 85 51q78 22 212 22q231 0 322 -88q69 -68 81 -189q4 -48 4 -114q0 -144 -16.5 -221t-58.5 -127q-42 -49 -128.5 -71.5t-236.5 -22.5q-180 0 -261 26q-115 38 -154 133q-23 54 -23 144v68h151v-41q0 -112 33 -144q42 -40 149 -44
q40 -2 85 -2q203 0 261 43q32 24 39 116q3 39 3 164q0 139 -47 185q-48 46 -226 46q-149 0 -201 -16q-61 -18 -76 -67q-2 -7 -6 -27h-143v616h808z" />
    <glyph glyph-name="six" unicode="6" horiz-adv-x="1122" 
d="M980 867h-155v55q0 78 -28 102q-40 35 -185 35q-176 0 -235 -15q-59 -16 -77 -59q-18 -44 -18 -124v-200q39 41 81 55q74 25 240 25q182 0 258 -33q92 -39 125 -135q25 -74 25 -191q0 -220 -75 -306q-59 -67 -165 -79q-79 -9 -190 -9q-137 0 -206.5 11.5t-119.5 43.5
q-94 58 -119 154q-15 54 -17 212l-2 212q5 256 5 270q3 98 30 155.5t87 95.5q89 57 303 57q197 0 279 -26q159 -50 159 -251v-55zM561 601q-189 0 -246 -44q-41 -31 -41 -150q0 -191 45 -233q48 -46 255 -46q203 0 244 37q42 38 42 192q0 167 -37 203q-41 41 -262 41z" />
    <glyph glyph-name="seven" unicode="7" horiz-adv-x="1069" 
d="M963 1188v-184l-567 -1004h-188l609 1050h-727v138h873z" />
    <glyph glyph-name="eight" unicode="8" horiz-adv-x="1112" 
d="M844 616q60 -17 88 -41q48 -41 60 -103q10 -55 10 -123q0 -119 -17 -183t-60 -102q-44 -40 -128 -58t-226 -18q-205 0 -297 27q-103 31 -141 127q-24 60 -24 200q0 147 39 200q36 49 120 75q-61 20 -84 42q-60 60 -60 228q0 180 73 242q63 54 177 63q84 7 185 7
q191 0 262 -20q116 -32 150 -141q18 -59 18 -155q0 -141 -42 -203q-24 -35 -103 -64zM557 1059q-121 0 -174 -7t-75 -26q-32 -27 -32 -141q0 -105 14 -136q21 -44 78 -56q55 -12 231 -12q163 0 204 40q35 34 35 156q0 123 -38 152q-38 30 -243 30zM540 543q-137 0 -190 -15
q-63 -19 -80 -70q-10 -28 -10 -107q0 -122 15 -155q22 -46 87 -58q53 -10 206 -10q198 0 244 43q39 35 39 182q0 108 -37 146q-26 28 -93 37q-49 7 -181 7z" />
    <glyph glyph-name="nine" unicode="9" horiz-adv-x="1118" 
d="M106 323h150v-41q0 -99 39 -126q36 -24 112 -26q75 -2 142 -2q152 0 214 22q54 19 67 97q8 43 8 146v135q-27 -32 -53 -43q-80 -35 -286 -35q-201 0 -287 61q-71 50 -88 143q-12 65 -12 148q0 164 30 238q50 120 208 147q70 12 204 12q192 0 275 -34q132 -53 156 -204
q15 -95 15 -433q0 -185 -9 -266q-12 -101 -48 -157.5t-107 -85.5q-78 -31 -283 -31q-192 0 -263 18q-140 36 -172 145q-12 41 -12 131v41zM526 1059q-182 0 -222 -38q-41 -39 -41 -191q0 -159 40 -200q40 -40 213 -40q164 0 226 15q54 13 74 42q23 33 23 137q0 130 -12 168
q-21 70 -84 90q-55 17 -217 17z" />
    <glyph glyph-name="colon" unicode=":" horiz-adv-x="431" 
d="M308 212v-212h-185v212h185zM308 1092v-212h-185v212h185z" />
    <glyph glyph-name="semicolon" unicode=";" horiz-adv-x="454" 
d="M331 212v-228q0 -111 -26 -152q-38 -62 -133 -62q-18 0 -49 2v88q53 3 75 19q28 21 28 76q0 15 -2 45h-78v212h185zM320 1092v-212h-185v212h185z" />
    <glyph glyph-name="less" unicode="&#x3c;" 
d="M955 1064v-163l-713 -328l713 -328v-162l-887 421v140z" />
    <glyph glyph-name="equal" unicode="=" horiz-adv-x="1079" 
d="M66 809h946v-129h-946v129zM66 467h946v-129h-946v129z" />
    <glyph glyph-name="greater" unicode="&#x3e;" 
d="M69 1064l887 -420v-140l-887 -421v162l713 328l-713 328v163z" />
    <glyph glyph-name="question" unicode="?" horiz-adv-x="976" 
d="M518 396h-157v192q0 128 65 172q36 23 173 70q71 25 90 65q13 25 13 102q0 135 -9 165q-19 61 -86 72q-34 6 -127 6q-95 0 -129 -11q-60 -18 -72 -92q-3 -21 -3 -86v-29h-153v37q0 103 12 152q25 102 118 141q72 31 226 31q156 0 228 -26q110 -39 135 -141
q11 -46 11 -184q0 -151 -17 -195q-20 -52 -55 -78q-36 -26 -200 -87q-43 -17 -53 -35q-10 -15 -10 -65v-176zM533 212v-212h-185v212h185z" />
    <glyph glyph-name="at" unicode="@" horiz-adv-x="1499" 
d="M972 1091h115v-544q4 -91 7 -108q12 -59 90 -59q54 0 74 35q18 33 29 138.5t11 240.5q0 221 -30 320q-36 115 -181 136q-106 15 -309 15q-263 0 -370 -22q-113 -23 -148 -96q-58 -119 -58 -438q0 -259 30 -391q32 -134 135 -175q76 -31 172 -37q132 -9 285 -9
q208 0 285 25q33 11 61 53l79 -56q-42 -73 -119 -95q-88 -26 -322 -26q-196 0 -310 16q-158 22 -241 81q-95 68 -128 231q-27 137 -27 348q0 306 45 450q41 129 136 176q133 66 505 66q270 0 385 -36q117 -37 161 -121q63 -120 63 -377q0 -279 -39 -414q-26 -90 -92 -115
q-32 -13 -78 -13q-167 0 -193 128h-3q-25 -61 -77 -92q-69 -42 -206 -42q-184 0 -249 107q-51 85 -51 289q0 153 21 237q29 109 122 148q63 26 164 26q113 0 182 -32q44 -20 70 -77h4v109zM744 995q-74 0 -122 -16q-66 -23 -82 -129q-9 -60 -9 -157q0 -206 51 -267
q37 -45 157 -45q113 0 159 29q61 38 67 150q6 94 6 196q0 144 -55 195q-48 44 -172 44z" />
    <glyph glyph-name="A" unicode="A" horiz-adv-x="1138" 
d="M858 242h-577l-92 -242h-169l444 1170h202l453 -1170h-168zM806 376l-239 625l-235 -625h474z" />
    <glyph glyph-name="B" unicode="B" horiz-adv-x="1170" 
d="M143 0v1170h550q102 0 142 -5q120 -15 173 -103q40 -68 40 -209q0 -143 -59 -201q-28 -28 -105 -38q79 -5 118 -34q81 -63 81 -242q0 -224 -117 -293q-75 -45 -219 -45h-604zM302 669h354q128 0 174 24q39 22 52 71q7 30 7 90q0 81 -15 113q-22 49 -89 58q-24 3 -95 3
h-388v-359zM302 142h288q147 1 175 3q122 6 145 68q14 40 14 110q0 84 -15 128q-19 60 -105 72q-25 4 -156 4h-346v-385z" />
    <glyph glyph-name="C" unicode="C" horiz-adv-x="1151" 
d="M917 412h159v-58q1 -145 -22 -207q-46 -127 -205 -153q-60 -10 -301 -10q-108 0 -154 4.5t-91 20.5q-176 59 -199 311q-10 116 -10 249q0 273 13 358q21 136 143 204q76 43 203 51q62 4 225 4q154 0 215 -20q138 -45 166 -200q10 -57 10 -144q0 -10 -1 -32h-157
q-1 39 -1 51q-2 142 -48 175q-40 29 -185 29q-192 0 -276 -11q-52 -7 -80.5 -29.5t-43.5 -68.5q-16 -50 -16 -166q0 -412 22 -514q13 -66 48 -93q40 -31 130 -35q55 -2 118 -2q145 0 212.5 9.5t92.5 33.5q35 34 35 153q0 39 -2 90z" />
    <glyph glyph-name="D" unicode="D" horiz-adv-x="1243" 
d="M143 0v1170h573q111 0 190 -20q121 -29 185 -149q59 -111 59 -363q0 -207 -9 -288q-25 -227 -171 -303q-55 -28 -169 -43q-30 -4 -52 -4h-606zM302 142h387q185 0 240 66q46 55 57 185q5 59 5 169q0 198 -10 278q-18 134 -117 169q-54 19 -149 19h-413v-886z" />
    <glyph glyph-name="E" unicode="E" horiz-adv-x="1036" 
d="M302 1028v-354h610v-139h-610v-393h635v-142h-794v1170h794v-142h-635z" />
    <glyph glyph-name="F" unicode="F" horiz-adv-x="960" 
d="M302 1028v-365h587v-139h-587v-524h-159v1170h761v-142h-602z" />
    <glyph glyph-name="G" unicode="G" horiz-adv-x="1192" 
d="M577 597h518q5 -58 5 -128q0 -128 -3 -185q-12 -208 -159 -269q-76 -31 -343 -31q-178 0 -260 18.5t-139 70.5q-88 81 -98 241q-4 64 -3 162q0 20 -1 124v48q0 157 12.5 239.5t45.5 146.5q59 115 208 142q59 10 219 10q180 0 242 -4.5t108 -19.5q152 -53 165 -229
q3 -31 3 -124h-158q-1 131 -21 174q-21 45 -112 55q-65 7 -241 7q-144 0 -207 -18q-71 -20 -91 -118q-11 -51 -14 -321q1 -212 3 -249q4 -90 28.5 -135.5t77.5 -59.5q67 -19 292 -19q117 0 174.5 11.5t79.5 39.5q33 42 33 220q0 20 -1 59h-363v142z" />
    <glyph glyph-name="H" unicode="H" horiz-adv-x="1271" 
d="M1129 1170v-1170h-159v529h-668v-529h-159v1170h159v-502h668v502h159z" />
    <glyph glyph-name="I" unicode="I" horiz-adv-x="445" 
d="M302 1170v-1170h-159v1170h159z" />
    <glyph glyph-name="J" unicode="J" horiz-adv-x="967" 
d="M825 1170v-819q0 -102 -11 -157t-39 -96q-48 -68 -130 -93q-68 -21 -190 -21q-176 0 -259 34q-98 40 -125 135q-14 48 -14 143q0 79 4 150h156q-1 -52 -1 -69q0 -144 11 -181q15 -48 71 -61q36 -9 151 -9q121 0 158 23q48 31 55 124q4 46 4 99v798h159z" />
    <glyph glyph-name="K" unicode="K" horiz-adv-x="1159" 
d="M302 1170v-498h106l482 498h210l-551 -567l615 -603h-220l-536 527h-106v-527h-159v1170h159z" />
    <glyph glyph-name="L" unicode="L" horiz-adv-x="958" 
d="M302 1170v-1019h618v-151h-777v1170h159z" />
    <glyph glyph-name="M" unicode="M" horiz-adv-x="1598" 
d="M1455 1170v-1170h-159v1023l-421 -1023h-150l-423 1023v-1023h-159v1170h248l407 -999l406 999h251z" />
    <glyph glyph-name="N" unicode="N" horiz-adv-x="1321" 
d="M1179 1170v-1170h-235l-642 1023v-1023h-159v1170h234l643 -1023v1023h159z" />
    <glyph glyph-name="O" unicode="O" horiz-adv-x="1220" 
d="M625 1186q131 0 199 -8.5t119 -30.5q148 -64 176 -286q8 -60 8 -218q0 -270 -9 -340q-15 -114 -52 -177t-110 -98q-74 -36 -192 -41q-61 -3 -154 -3q-157 0 -223.5 8.5t-122.5 35.5q-105 52 -141 176q-25 86 -27 203q-2 76 -2 230q0 162 8 225q28 220 176 285
q66 29 173 35q69 4 174 4zM594 1040q-115 0 -164 -4.5t-82 -18.5q-60 -25 -81 -111q-14 -60 -14 -140v-181q0 -212 4 -252q8 -81 28.5 -122t63.5 -59q38 -16 111 -19q58 -3 151 -3q124 0 177 4.5t85 17.5q60 25 81 112q14 61 14 140v181q0 212 -4 252q-8 82 -28.5 122.5
t-63.5 58.5q-39 16 -114 19q-61 3 -164 3z" />
    <glyph glyph-name="P" unicode="P" horiz-adv-x="1121" 
d="M143 0v1170h524q112 0 159 -5.5t87 -23.5q146 -66 146 -336q0 -148 -40 -224q-52 -97 -160 -123q-38 -9 -212 -11h-345v-447h-159zM302 589h320q147 0 198 18q54 20 71 84q9 32 9 96q0 121 -15 169q-17 52 -78 65q-26 6 -144 7h-361v-439z" />
    <glyph glyph-name="Q" unicode="Q" horiz-adv-x="1220" 
d="M1225 159l-70 -114l-102 67q-51 -70 -146 -102q-63 -22 -183 -25q-60 -1 -119 -1q-153 0 -219 8.5t-122 35.5q-114 56 -149 204q-17 70 -19 173q-2 57 -2 237q0 159 8 220q28 220 176 285q65 29 170 35q69 4 162 4q143 0 212.5 -8t120.5 -31q148 -65 176 -285
q8 -61 8 -229q0 -278 -10 -346q-3 -24 -9 -50zM584 419l77 114l303 -201q4 64 4 253q0 217 -4 253q-8 82 -29 124t-62 60q-39 16 -112 19q-58 3 -151 3q-125 0 -177.5 -4.5t-84.5 -18.5q-60 -26 -81 -113q-14 -61 -14 -142v-181q0 -213 4 -253q8 -82 28.5 -123.5t63.5 -59.5
q38 -17 107 -20q55 -3 138 -3q130 0 205 5q88 7 127 65z" />
    <glyph glyph-name="R" unicode="R" horiz-adv-x="1193" 
d="M143 0v1170h590q156 0 237 -53q71 -46 97 -140q15 -56 15 -147q0 -150 -39 -218q-41 -74 -150 -84q172 -11 173 -222v-306h-159v276q0 108 -49 148q-51 37 -152 35h-404v-459h-159zM302 601h388q119 0 172 32q61 37 61 151q0 155 -28 195q-35 49 -161 49h-432v-427z" />
    <glyph glyph-name="S" unicode="S" horiz-adv-x="1097" 
d="M988 830h-159q0 83 -7 117q-13 66 -82 85q-44 12 -157 12q-159 0 -205 -8q-86 -14 -110 -77q-14 -38 -14 -100q0 -79 19 -121q22 -47 109 -58q32 -4 189 -10q174 -7 237 -19q126 -26 172 -123q29 -62 29 -192q0 -189 -62 -259q-64 -72 -183 -84q-91 -9 -246 -9
q-188 0 -252 20q-150 48 -172 231q-5 39 -7 148h159v-44q1 -86 13 -126.5t43 -61.5q29 -20 92 -22q69 -3 164 -3q130 0 184 10t78 39q30 35 30 176q0 68 -15 101q-20 47 -99 57q-39 5 -197 11q-157 7 -198 12q-131 19 -193 100q-53 68 -53 210q0 204 91 274q70 54 181 64
q79 6 183 6q199 0 273 -25q151 -50 164 -240q1 -21 1 -91z" />
    <glyph glyph-name="T" unicode="T" horiz-adv-x="1007" 
d="M584 1019v-1019h-159v1019h-387v151h930v-151h-384z" />
    <glyph glyph-name="U" unicode="U" horiz-adv-x="1251" 
d="M949 1170h159v-813q0 -150 -33 -218q-49 -103 -176 -137q-69 -18 -267 -18q-141 0 -202.5 6t-108.5 24q-105 40 -145 125q-33 71 -33 218v813h159v-813q0 -124 21 -161q27 -46 105 -61q47 -9 181 -9q197 0 258 20q56 18 72 90q10 40 10 121v813z" />
    <glyph glyph-name="V" unicode="V" horiz-adv-x="1096" 
d="M912 1170h171l-429 -1170h-207l-433 1170h170l367 -1000z" />
    <glyph glyph-name="W" unicode="W" horiz-adv-x="1801" 
d="M1788 1170l-377 -1170h-218l-296 1014l-301 -1014h-215l-367 1170h165l308 -1014l304 1014h213l302 -1014l315 1014h167z" />
    <glyph glyph-name="X" unicode="X" horiz-adv-x="1101" 
d="M1073 1170l-390 -565l418 -605h-190l-353 506l-361 -506h-196l433 605l-401 565h194l331 -469l326 469h189z" />
    <glyph glyph-name="Y" unicode="Y" horiz-adv-x="1068" 
d="M1067 1170l-459 -683v-487h-159v487l-448 683h187l345 -516l344 516h190z" />
    <glyph glyph-name="Z" unicode="Z" horiz-adv-x="1076" 
d="M999 1170v-132l-736 -896h751v-142h-951v135l733 893h-713v142h916z" />
    <glyph glyph-name="bracketleft" unicode="[" horiz-adv-x="673" 
d="M165 1498h399v-133h-225v-1583h225v-134h-399v1850z" />
    <glyph glyph-name="backslash" unicode="\" horiz-adv-x="1212" 
d="M14 1365h131l1054 -1560h-132z" />
    <glyph glyph-name="bracketright" unicode="]" horiz-adv-x="673" 
d="M508 -352h-399v133h225v1584h-225v134h399v-1851z" />
    <glyph glyph-name="asciicircum" unicode="^" 
d="M217 765h-153l356 604h185l356 -604h-154l-296 492z" />
    <glyph glyph-name="underscore" unicode="_" 
d="M0 -145h1024v-107h-1024v107z" />
    <glyph glyph-name="grave" unicode="`" 
d="M336 1630l310 -234l-56 -85l-336 207z" />
    <glyph glyph-name="a" unicode="a" horiz-adv-x="1138" 
d="M858 242h-577l-92 -242h-169l444 1170h202l453 -1170h-168zM806 376l-239 625l-235 -625h474z" />
    <glyph glyph-name="b" unicode="b" horiz-adv-x="1170" 
d="M143 0v1170h550q102 0 142 -5q120 -15 173 -103q40 -68 40 -209q0 -143 -59 -201q-28 -28 -105 -38q79 -5 118 -34q81 -63 81 -242q0 -224 -117 -293q-75 -45 -219 -45h-604zM302 669h354q128 0 174 24q39 22 52 71q7 30 7 90q0 81 -15 113q-22 49 -89 58q-24 3 -95 3
h-388v-359zM302 142h288q147 1 175 3q122 6 145 68q14 40 14 110q0 84 -15 128q-19 60 -105 72q-25 4 -156 4h-346v-385z" />
    <glyph glyph-name="c" unicode="c" horiz-adv-x="1151" 
d="M917 412h159v-58q1 -145 -22 -207q-46 -127 -205 -153q-60 -10 -301 -10q-108 0 -154 4.5t-91 20.5q-176 59 -199 311q-10 116 -10 249q0 273 13 358q21 136 143 204q76 43 203 51q62 4 225 4q154 0 215 -20q138 -45 166 -200q10 -57 10 -144q0 -10 -1 -32h-157
q-1 39 -1 51q-2 142 -48 175q-40 29 -185 29q-192 0 -276 -11q-52 -7 -80.5 -29.5t-43.5 -68.5q-16 -50 -16 -166q0 -412 22 -514q13 -66 48 -93q40 -31 130 -35q55 -2 118 -2q145 0 212.5 9.5t92.5 33.5q35 34 35 153q0 39 -2 90z" />
    <glyph glyph-name="d" unicode="d" horiz-adv-x="1243" 
d="M143 0v1170h573q111 0 190 -20q121 -29 185 -149q59 -111 59 -363q0 -207 -9 -288q-25 -227 -171 -303q-55 -28 -169 -43q-30 -4 -52 -4h-606zM302 142h387q185 0 240 66q46 55 57 185q5 59 5 169q0 198 -10 278q-18 134 -117 169q-54 19 -149 19h-413v-886z" />
    <glyph glyph-name="e" unicode="e" horiz-adv-x="1036" 
d="M302 1028v-354h610v-139h-610v-393h635v-142h-794v1170h794v-142h-635z" />
    <glyph glyph-name="f" unicode="f" horiz-adv-x="960" 
d="M302 1028v-365h587v-139h-587v-524h-159v1170h761v-142h-602z" />
    <glyph glyph-name="g" unicode="g" horiz-adv-x="1192" 
d="M577 597h518q5 -58 5 -128q0 -128 -3 -185q-12 -208 -159 -269q-76 -31 -343 -31q-178 0 -260 18.5t-139 70.5q-88 81 -98 241q-4 64 -3 162q0 20 -1 124v48q0 157 12.5 239.5t45.5 146.5q59 115 208 142q59 10 219 10q180 0 242 -4.5t108 -19.5q152 -53 165 -229
q3 -31 3 -124h-158q-1 131 -21 174q-21 45 -112 55q-65 7 -241 7q-144 0 -207 -18q-71 -20 -91 -118q-11 -51 -14 -321q1 -212 3 -249q4 -90 28.5 -135.5t77.5 -59.5q67 -19 292 -19q117 0 174.5 11.5t79.5 39.5q33 42 33 220q0 20 -1 59h-363v142z" />
    <glyph glyph-name="h" unicode="h" horiz-adv-x="1271" 
d="M1129 1170v-1170h-159v529h-668v-529h-159v1170h159v-502h668v502h159z" />
    <glyph glyph-name="i" unicode="i" horiz-adv-x="445" 
d="M302 1170v-1170h-159v1170h159z" />
    <glyph glyph-name="j" unicode="j" horiz-adv-x="967" 
d="M825 1170v-819q0 -102 -11 -157t-39 -96q-48 -68 -130 -93q-68 -21 -190 -21q-176 0 -259 34q-98 40 -125 135q-14 48 -14 143q0 79 4 150h156q-1 -52 -1 -69q0 -144 11 -181q15 -48 71 -61q36 -9 151 -9q121 0 158 23q48 31 55 124q4 46 4 99v798h159z" />
    <glyph glyph-name="k" unicode="k" horiz-adv-x="1159" 
d="M302 1170v-498h106l482 498h210l-551 -567l615 -603h-220l-536 527h-106v-527h-159v1170h159z" />
    <glyph glyph-name="l" unicode="l" horiz-adv-x="958" 
d="M302 1170v-1019h618v-151h-777v1170h159z" />
    <glyph glyph-name="m" unicode="m" horiz-adv-x="1598" 
d="M1455 1170v-1170h-159v1023l-421 -1023h-150l-423 1023v-1023h-159v1170h248l407 -999l406 999h251z" />
    <glyph glyph-name="n" unicode="n" horiz-adv-x="1321" 
d="M1179 1170v-1170h-235l-642 1023v-1023h-159v1170h234l643 -1023v1023h159z" />
    <glyph glyph-name="o" unicode="o" horiz-adv-x="1220" 
d="M625 1186q131 0 199 -8.5t119 -30.5q148 -64 176 -286q8 -60 8 -218q0 -270 -9 -340q-15 -114 -52 -177t-110 -98q-74 -36 -192 -41q-61 -3 -154 -3q-157 0 -223.5 8.5t-122.5 35.5q-105 52 -141 176q-25 86 -27 203q-2 76 -2 230q0 162 8 225q28 220 176 285
q66 29 173 35q69 4 174 4zM594 1040q-115 0 -164 -4.5t-82 -18.5q-60 -25 -81 -111q-14 -60 -14 -140v-181q0 -212 4 -252q8 -81 28.5 -122t63.5 -59q38 -16 111 -19q58 -3 151 -3q124 0 177 4.5t85 17.5q60 25 81 112q14 61 14 140v181q0 212 -4 252q-8 82 -28.5 122.5
t-63.5 58.5q-39 16 -114 19q-61 3 -164 3z" />
    <glyph glyph-name="p" unicode="p" horiz-adv-x="1121" 
d="M143 0v1170h524q112 0 159 -5.5t87 -23.5q146 -66 146 -336q0 -148 -40 -224q-52 -97 -160 -123q-38 -9 -212 -11h-345v-447h-159zM302 589h320q147 0 198 18q54 20 71 84q9 32 9 96q0 121 -15 169q-17 52 -78 65q-26 6 -144 7h-361v-439z" />
    <glyph glyph-name="q" unicode="q" horiz-adv-x="1220" 
d="M1225 159l-70 -114l-102 67q-51 -70 -146 -102q-63 -22 -183 -25q-60 -1 -119 -1q-153 0 -219 8.5t-122 35.5q-114 56 -149 204q-17 70 -19 173q-2 57 -2 237q0 159 8 220q28 220 176 285q65 29 170 35q69 4 162 4q143 0 212.5 -8t120.5 -31q148 -65 176 -285
q8 -61 8 -229q0 -278 -10 -346q-3 -24 -9 -50zM584 419l77 114l303 -201q4 64 4 253q0 217 -4 253q-8 82 -29 124t-62 60q-39 16 -112 19q-58 3 -151 3q-125 0 -177.5 -4.5t-84.5 -18.5q-60 -26 -81 -113q-14 -61 -14 -142v-181q0 -213 4 -253q8 -82 28.5 -123.5t63.5 -59.5
q38 -17 107 -20q55 -3 138 -3q130 0 205 5q88 7 127 65z" />
    <glyph glyph-name="r" unicode="r" horiz-adv-x="1193" 
d="M143 0v1170h590q156 0 237 -53q71 -46 97 -140q15 -56 15 -147q0 -150 -39 -218q-41 -74 -150 -84q172 -11 173 -222v-306h-159v276q0 108 -49 148q-51 37 -152 35h-404v-459h-159zM302 601h388q119 0 172 32q61 37 61 151q0 155 -28 195q-35 49 -161 49h-432v-427z" />
    <glyph glyph-name="s" unicode="s" horiz-adv-x="1097" 
d="M988 830h-159q0 83 -7 117q-13 66 -82 85q-44 12 -157 12q-159 0 -205 -8q-86 -14 -110 -77q-14 -38 -14 -100q0 -79 19 -121q22 -47 109 -58q32 -4 189 -10q174 -7 237 -19q126 -26 172 -123q29 -62 29 -192q0 -189 -62 -259q-64 -72 -183 -84q-91 -9 -246 -9
q-188 0 -252 20q-150 48 -172 231q-5 39 -7 148h159v-44q1 -86 13 -126.5t43 -61.5q29 -20 92 -22q69 -3 164 -3q130 0 184 10t78 39q30 35 30 176q0 68 -15 101q-20 47 -99 57q-39 5 -197 11q-157 7 -198 12q-131 19 -193 100q-53 68 -53 210q0 204 91 274q70 54 181 64
q79 6 183 6q199 0 273 -25q151 -50 164 -240q1 -21 1 -91z" />
    <glyph glyph-name="t" unicode="t" horiz-adv-x="1007" 
d="M584 1019v-1019h-159v1019h-387v151h930v-151h-384z" />
    <glyph glyph-name="u" unicode="u" horiz-adv-x="1251" 
d="M949 1170h159v-813q0 -150 -33 -218q-49 -103 -176 -137q-69 -18 -267 -18q-141 0 -202.5 6t-108.5 24q-105 40 -145 125q-33 71 -33 218v813h159v-813q0 -124 21 -161q27 -46 105 -61q47 -9 181 -9q197 0 258 20q56 18 72 90q10 40 10 121v813z" />
    <glyph glyph-name="v" unicode="v" horiz-adv-x="1096" 
d="M912 1170h171l-429 -1170h-207l-433 1170h170l367 -1000z" />
    <glyph glyph-name="w" unicode="w" horiz-adv-x="1801" 
d="M1788 1170l-377 -1170h-218l-296 1014l-301 -1014h-215l-367 1170h165l308 -1014l304 1014h213l302 -1014l315 1014h167z" />
    <glyph glyph-name="x" unicode="x" horiz-adv-x="1101" 
d="M1073 1170l-390 -565l418 -605h-190l-353 506l-361 -506h-196l433 605l-401 565h194l331 -469l326 469h189z" />
    <glyph glyph-name="y" unicode="y" horiz-adv-x="1068" 
d="M1067 1170l-459 -683v-487h-159v487l-448 683h187l345 -516l344 516h190z" />
    <glyph glyph-name="z" unicode="z" horiz-adv-x="1076" 
d="M999 1170v-132l-736 -896h751v-142h-951v135l733 893h-713v142h916z" />
    <glyph glyph-name="braceleft" unicode="{" horiz-adv-x="673" 
d="M193 573q76 -36 110 -98q32 -63 32 -174v-301q0 -102 24 -144q46 -81 178 -81h14v-127h-102q-81 0 -143 31q-66 32 -92 93q-34 82 -34 225v297q1 106 -40 158q-32 39 -94 56v130q61 16 94 56q41 53 40 158v297q0 173 47 250q34 58 119 84q50 15 103 15h102v-127
q-45 0 -87 -9t-64 -24q-18 -12 -34 -36.5t-21 -46.5q-3 -14 -6.5 -52t-3.5 -57v-301q0 -124 -39 -187q-33 -51 -103 -85z" />
    <glyph glyph-name="bar" unicode="|" horiz-adv-x="594" 
d="M216 1365h163v-1706h-163v1706z" />
    <glyph glyph-name="braceright" unicode="}" horiz-adv-x="659" 
d="M467 573q-76 36 -110 98q-32 63 -32 174v301q0 102 -24 144q-46 81 -178 81h-14v127h103q80 0 142 -31q66 -32 92 -93q34 -82 34 -225v-297q-1 -105 40 -158q32 -39 94 -56v-130q-61 -16 -94 -56q-41 -54 -40 -158v-297q0 -173 -47 -250q-34 -58 -119 -84
q-50 -15 -102 -15h-103v127q45 0 86.5 9t63.5 24q19 12 35 36.5t21 46.5q3 14 6.5 52t3.5 57v301q0 124 39 187q33 51 103 85z" />
    <glyph glyph-name="asciitilde" unicode="~" horiz-adv-x="1365" 
d="M280 1187l-87 69q37 77 81 131q81 99 195 99q79 0 235 -79q89 -44 119 -55q43 -14 77 -14q67 0 119 56q33 36 68 97l87 -69q-111 -232 -277 -232q-51 0 -123 30q-38 16 -111 52q-137 67 -200 67q-68 0 -119 -59q-30 -34 -64 -93z" />
    <glyph glyph-name="exclamdown" unicode="&#xa1;" horiz-adv-x="533" 
d="M171 -195l23 969h149l20 -969h-192zM174 958v212h185v-212h-185z" />
    <glyph glyph-name="cent" unicode="&#xa2;" horiz-adv-x="990" 
d="M552 -6h-127v125q-116 3 -185 45q-80 49 -107 174q-17 79 -17 227q0 187 40 268q70 140 269 144v113h127v-113q101 -2 171 -38q114 -58 114 -219q0 -10 -1 -43h-145q-1 87 -8 111q-22 61 -131 65v-609q70 3 107 23q29 17 38 49q9 27 10 76q0 19 1 58h146q-1 -21 -1 -45
q-2 -113 -31 -167q-69 -119 -270 -119v-125zM425 855q-71 -6 -103 -31q-55 -44 -55 -241q0 -266 61 -313q27 -20 97 -24v609z" />
    <glyph glyph-name="sterling" unicode="&#xa3;" horiz-adv-x="1074" 
d="M680 591v-138h-330v-40v-47q1 -35 1 -46q0 -98 -30 -145q-11 -19 -36 -39h721v-136h-928v124q65 14 90 56q20 38 23 117q2 41 2 74v82h-144v138h144v163q0 9 -1 48q-1 27 -1 50q0 181 71 260q52 58 143 73q81 14 179 14q167 0 239 -27q118 -45 149 -160q11 -42 11 -131
v-68h-152v68q0 101 -30 134q-39 44 -198 44q-136 0 -187 -20q-43 -16 -55 -63q-8 -30 -11 -165v-220h330z" />
    <glyph glyph-name="currency" unicode="&#xa4;" horiz-adv-x="1338" 
d="M105 89l190 193q-104 137 -104 292q0 150 104 290l-195 193l80 80l193 -193q143 106 296 106q154 0 293 -105l194 191l79 -79l-192 -192q105 -141 105 -293q0 -149 -103 -289l193 -193l-79 -80l-193 193q-135 -105 -294 -105q-149 0 -296 105l-192 -193zM665 924
q-140 0 -243 -104q-101 -102 -101 -246q0 -145 102 -248q102 -102 246 -102t247 103q101 101 101 245q0 149 -101 249q-105 103 -251 103z" />
    <glyph glyph-name="yen" unicode="&#xa5;" horiz-adv-x="1048" 
d="M797 821h147v-137h-231l-89 -143h320v-138h-347v-403h-157v403h-336v138h310l-87 143h-223v137h142l-221 367h184l314 -531l312 531h188z" />
    <glyph glyph-name="brokenbar" unicode="&#xa6;" horiz-adv-x="594" 
d="M216 1365h163v-685h-163v685zM216 314h163v-655h-163v655z" />
    <glyph glyph-name="section" unicode="&#xa7;" horiz-adv-x="1164" 
d="M1026 1017h-147q0 40 -1 54q0 88 -32 120q-37 37 -142 45q-59 4 -123 4q-152 0 -201 -19q-40 -15 -55 -57q-11 -33 -11 -100q0 -99 28 -128q21 -22 62 -35q29 -10 80 -25l306 -90q116 -34 151 -50q89 -38 114 -120q14 -43 14 -109q0 -118 -35 -184q-22 -43 -59 -65
q-17 -10 -52 -23q74 -35 98 -73q38 -63 38 -197q0 -246 -123 -312q-62 -33 -178 -41q-63 -5 -161 -5q-255 0 -336 38q-115 52 -138 195q-7 42 -6 146h151q1 -90 6 -119q14 -82 118 -99q70 -12 169 -12q180 0 240 11q104 19 104 190q0 95 -35 127q-29 27 -136 55l-420 111
q-87 24 -122 44q-96 59 -96 257q0 145 62 200q36 32 108 48q-64 40 -84 97q-20 55 -20 145q0 197 65 263q73 75 336 75q274 0 353 -44q87 -49 104 -172q6 -43 6 -146zM395 386l308 -86q61 -17 99 -17q77 0 106 68q19 46 19 141q0 67 -49 100q-32 23 -118 48l-295 87
q-67 20 -98 20q-71 0 -100 -54q-23 -42 -23 -141q0 -77 32 -112q22 -23 56 -35q22 -7 63 -19z" />
    <glyph glyph-name="dieresis" unicode="&#xa8;" 
d="M397 1521v-155h-184v155h184zM812 1521v-155h-184v155h184z" />
    <glyph glyph-name="copyright" unicode="&#xa9;" horiz-adv-x="1526" 
d="M773 1379q186 0 353 -103q168 -103 256 -277q76 -150 76 -317q0 -138 -53 -266t-150 -226q-98 -98 -226 -151t-265 -53q-138 0 -266 53t-225 150q-98 98 -151.5 226.5t-53.5 265.5q0 197 102 366q101 165 279 256q148 76 324 76zM757 1271q-110 0 -216 -45t-187 -126
q-82 -82 -126.5 -191t-44.5 -226q0 -245 171 -417q170 -172 410 -172q239 0 409 172q170 173 170 415q0 119 -45 229t-125 190q-174 171 -416 171zM973 569h117q-1 -27 -1 -36q1 -86 -11 -127t-45 -67q-46 -38 -125 -43q-59 -4 -157 -4q-119 0 -171 16q-121 38 -136 204
q-7 79 -7 173q0 184 8 231q15 90 97 134q50 27 140 33q44 3 138 3q123 0 175 -28q69 -36 79 -127q3 -29 6 -100h-116q-1 21 -1 28q-1 87 -32 108q-27 18 -120 18q-103 0 -158 -6q-65 -8 -84 -63q-11 -31 -11 -99q0 -270 14 -337q10 -43 33 -61q32 -25 155 -25q161 0 190 27
q24 22 24 97q0 7 -1 51z" />
    <glyph glyph-name="ordfeminine" unicode="&#xaa;" horiz-adv-x="764" 
d="M236 973h-126q0 11 1 31q1 106 52 146q59 47 226 47q129 0 188 -27q88 -39 100 -149q5 -44 5 -75v-454h-125v45q-35 -30 -69 -41q-48 -14 -142 -14q-149 0 -210 55q-54 48 -54 160q0 137 67 186q59 43 205 43q150 0 203 -43v42q0 84 -16 123q-20 46 -143 46
q-110 0 -140 -23q-23 -17 -23 -64q0 -6 1 -34zM385 820q-122 0 -153 -27q-20 -17 -20 -84q0 -73 27 -94q32 -23 131 -23q127 0 169 35q23 20 23 74q0 66 -26 89q-36 30 -151 30z" />
    <glyph glyph-name="guillemotleft" unicode="&#xab;" horiz-adv-x="981" 
d="M264 576l209 -404l-113 -76l-251 480l223 472l120 -73zM648 576l210 -404l-114 -76l-251 480l223 472l120 -73z" />
    <glyph glyph-name="logicalnot" unicode="&#xac;" 
d="M797 0v425h-729v143h887v-568h-158z" />
    <glyph glyph-name="registered" unicode="&#xae;" horiz-adv-x="1526" 
d="M773 1379q186 0 353 -103q168 -103 256 -277q76 -150 76 -317q0 -138 -53 -266t-150 -226q-98 -98 -226 -151t-265 -53q-138 0 -266 53t-225 150q-98 98 -151.5 226.5t-53.5 265.5q0 197 102 366q101 165 279 256q148 76 324 76zM757 1271q-110 0 -216 -45t-187 -126
q-82 -82 -126.5 -191t-44.5 -226q0 -245 171 -417q170 -172 410 -172q239 0 409 172q170 173 170 415q0 119 -45 229t-125 190q-174 171 -416 171zM452 300v779h384q107 0 162 -34q76 -48 76 -192q0 -96 -26 -144q-21 -38 -81 -57q96 -31 96 -150v-202h-116v182
q0 75 -35 103q-37 26 -108 24h-236v-309h-116zM568 710h224q84 0 122 22q44 26 44 102q0 81 -20 109q-25 35 -115 35h-255v-268z" />
    <glyph glyph-name="macron" unicode="&#xaf;" 
d="M0 1618h1024v-107h-1024v107z" />
    <glyph glyph-name="degree" unicode="&#xb0;" horiz-adv-x="767" 
d="M388 1374q122 0 206 -93q71 -78 71 -183q0 -121 -92 -204q-80 -72 -190 -72q-119 0 -202 85q-79 80 -79 193q0 119 92 202q80 72 194 72zM381 1277q-79 0 -134 -60q-46 -50 -46 -119q0 -72 51 -124q54 -55 131 -55q82 0 137 60q46 51 46 120q0 77 -59 131q-52 47 -126 47
z" />
    <glyph glyph-name="plusminus" unicode="&#xb1;" horiz-adv-x="1079" 
d="M60 783h404v354h151v-354h405v-143h-405v-350h-151v350h-404v143zM60 153h960v-143h-960v143z" />
    <glyph glyph-name="uni00B2" unicode="&#xb2;" horiz-adv-x="853" 
d="M740 459v-118h-660v172q0 69 13.5 110t45.5 68q45 37 126 53q23 4 138 17q153 16 178 37q29 23 29 136q0 90 -25 114q-31 29 -147 29q-184 0 -207 -34q-16 -25 -16 -90q0 -21 2 -81h-136v14q2 80 4 109q14 142 120 176q78 25 225 25q185 0 252 -62q61 -56 61 -212
q0 -98 -21 -148q-32 -74 -120 -103q-56 -19 -176 -30q-127 -11 -167 -28q-30 -14 -38 -63q-4 -16 -4 -84v-7h523z" />
    <glyph glyph-name="uni00B3" unicode="&#xb3;" horiz-adv-x="853" 
d="M325 714v120q39 -1 49 -1q175 0 202 17q30 18 30 95q0 62 -12 94q-12 30 -70 35q-8 0 -124 3q-94 -2 -124 -8q-36 -10 -46 -41q-6 -15 -6 -78v-26v-24h-134l1 14q0 87 5 125q12 77 66 112q55 36 132 41q53 4 121 4q131 0 184 -13q100 -26 128 -102q16 -42 16 -109
q0 -118 -39 -162q-16 -19 -42 -33q42 -18 60 -42q37 -48 37 -148q0 -142 -61 -196q-43 -38 -111 -48q-71 -10 -162 -10q-153 0 -217 20q-105 33 -126 134q-6 28 -6 143v14h135v-14v-53q0 -79 25 -103q15 -16 68 -19q37 -3 144 -3q129 0 154 28q20 23 20 120q0 88 -54 106
q-24 9 -186 9l-43 -1h-14z" />
    <glyph glyph-name="acute" unicode="&#xb4;" 
d="M688 1630l83 -112l-337 -207l-55 85z" />
    <glyph glyph-name="mu" unicode="&#xb5;" horiz-adv-x="1223" 
d="M242 48l11 -321h-138l14 630v677h159v-677q0 -124 21 -161q26 -46 105 -61q47 -9 181 -9q198 0 258 20q56 19 73 90q9 40 9 121v677h159v-677q0 -150 -33 -218q-49 -103 -176 -137q-69 -18 -270 -18q-130 0 -190 5t-103 19q-41 14 -80 40z" />
    <glyph glyph-name="paragraph" unicode="&#xb6;" horiz-adv-x="1256" 
d="M1099 -195h-156v1414h-187v-1414h-156v612h-68q-225 0 -331 109q-52 54 -75.5 139t-23.5 217q0 223 66 333q65 108 191 136q61 14 258 14h482v-1560z" />
    <glyph glyph-name="periodcentered" unicode="&#xb7;" horiz-adv-x="431" 
d="M308 680v-212h-185v212h185z" />
    <glyph glyph-name="cedilla" unicode="&#xb8;" 
d="M555 -86v47h123v-62q-1 -174 -72 -239t-193 -70h-68v152h51q80 1 119 42.5t40 129.5z" />
    <glyph glyph-name="uni00B9" unicode="&#xb9;" horiz-adv-x="853" 
d="M638 1188v-847h-137v707l-202 -202l-85 86l256 256h168z" />
    <glyph glyph-name="ordmasculine" unicode="&#xba;" horiz-adv-x="783" 
d="M397 1197q164 0 225 -51q55 -45 68 -136q11 -75 11 -171q0 -162 -27 -230q-38 -98 -153 -119q-44 -8 -129 -8q-171 0 -231 50q-55 47 -68 137q-11 73 -11 165q0 169 26 236q39 98 154 119q44 8 135 8zM389 1087q-110 0 -138 -24q-39 -33 -39 -216q0 -137 13 -183
q12 -43 38 -56q33 -16 129 -16q112 0 140 24q39 33 39 218q0 135 -13 181q-11 43 -38 56q-33 16 -131 16z" />
    <glyph glyph-name="guillemotright" unicode="&#xbb;" horiz-adv-x="981" 
d="M872 576l-251 -480l-114 76l209 404l-187 399l120 73zM487 576l-251 -480l-113 76l209 404l-187 399l120 73z" />
    <glyph glyph-name="onequarter" unicode="&#xbc;" horiz-adv-x="1946" 
d="M520 1188v-847h-137v707l-202 -202l-85 86l256 256h168zM1327 1188l-653 -1188h-131l649 1188h135zM1721 847v-544h129v-117h-129v-186h-137v186h-482v134l440 527h179zM1584 303v410l-338 -410h338z" />
    <glyph glyph-name="onehalf" unicode="&#xbd;" horiz-adv-x="1946" 
d="M1268 1188l-653 -1188h-131l649 1188h135zM1846 118v-118h-660v172q0 69 13.5 110t45.5 68q45 37 126 53q23 4 138 17q153 16 178 37q29 23 29 136q0 90 -25 114q-31 29 -147 29q-184 0 -207 -34q-16 -25 -16 -90q0 -17 1 -51q0 -19 1 -30h-136v14q2 80 4 109
q14 142 120 176q79 25 225 25q184 0 252 -62q61 -56 61 -212q0 -98 -21 -148q-32 -74 -120 -103q-57 -19 -176 -29q-127 -12 -167 -29q-30 -14 -38 -63q-4 -16 -4 -84v-7h523zM522 1188v-847h-137v707l-202 -202l-85 86l256 256h168z" />
    <glyph glyph-name="threequarters" unicode="&#xbe;" horiz-adv-x="1946" 
d="M320 714v120q39 -1 49 -1q175 0 202 17q30 18 30 95q0 62 -12 94q-12 30 -70 35q-8 0 -124 3q-94 -2 -124 -8q-36 -10 -46 -41q-6 -15 -6 -78v-26v-24h-134l1 14q0 87 5 125q12 77 66 112q55 36 132 41q53 4 121 4q131 0 184 -13q100 -26 128 -102q16 -42 16 -109
q0 -118 -39 -162q-16 -19 -42 -33q42 -18 60 -42q37 -48 37 -148q0 -142 -61 -196q-43 -38 -111 -48q-71 -10 -162 -10q-153 0 -217 20q-105 33 -126 134q-6 28 -6 143v14h135v-14v-53q0 -79 25 -103q15 -16 68 -19q37 -3 144 -3q129 0 154 28q20 23 20 120q0 88 -54 106
q-24 9 -186 9l-43 -1h-14zM1362 1188l-653 -1188h-131l649 1188h135zM1756 847v-544h129v-117h-129v-186h-137v186h-482v134l440 527h179zM1619 303v410l-338 -410h338z" />
    <glyph glyph-name="questiondown" unicode="&#xbf;" horiz-adv-x="976" 
d="M458 792h157v-192q0 -128 -65 -173q-35 -22 -173 -70q-71 -24 -90 -64q-13 -26 -13 -103q0 -135 9 -165q19 -61 86 -72q33 -6 127 -6q95 0 129 11q60 18 72 92q3 21 3 86v29h153v-37q0 -103 -12 -152q-25 -102 -118 -141q-72 -31 -225 -31q-157 0 -229 26
q-110 39 -135 141q-11 46 -11 184q0 151 17 195q20 52 55 78q36 27 200 88q43 16 53 34q10 16 10 66v176zM443 976v212h185v-212h-185z" />
    <glyph glyph-name="glyph142" unicode="&#xc0;" horiz-adv-x="1138" 
d="M858 242h-577l-92 -242h-169l444 1170h202l453 -1170h-168zM806 376l-239 625l-235 -625h474zM393 1630l310 -234l-56 -85l-336 207z" />
    <glyph glyph-name="glyph142" unicode="&#xe0;" horiz-adv-x="1138" 
d="M858 242h-577l-92 -242h-169l444 1170h202l453 -1170h-168zM806 376l-239 625l-235 -625h474zM393 1630l310 -234l-56 -85l-336 207z" />
    <glyph glyph-name="glyph143" unicode="&#xc1;" horiz-adv-x="1138" 
d="M858 242h-577l-92 -242h-169l444 1170h202l453 -1170h-168zM806 376l-239 625l-235 -625h474zM745 1630l83 -112l-337 -207l-55 85z" />
    <glyph glyph-name="glyph143" unicode="&#xe1;" horiz-adv-x="1138" 
d="M858 242h-577l-92 -242h-169l444 1170h202l453 -1170h-168zM806 376l-239 625l-235 -625h474zM745 1630l83 -112l-337 -207l-55 85z" />
    <glyph glyph-name="glyph144" unicode="&#xc2;" horiz-adv-x="1138" 
d="M858 242h-577l-92 -242h-169l444 1170h202l453 -1170h-168zM806 376l-239 625l-235 -625h474zM569 1617l300 -240l-64 -80l-236 173l-235 -173l-65 80z" />
    <glyph glyph-name="glyph144" unicode="&#xe2;" horiz-adv-x="1138" 
d="M858 242h-577l-92 -242h-169l444 1170h202l453 -1170h-168zM806 376l-239 625l-235 -625h474zM569 1617l300 -240l-64 -80l-236 173l-235 -173l-65 80z" />
    <glyph glyph-name="glyph145" unicode="&#xc3;" horiz-adv-x="1138" 
d="M858 242h-577l-92 -242h-169l444 1170h202l453 -1170h-168zM806 376l-239 625l-235 -625h474zM794 1543l91 -57q-81 -144 -180 -144q-54 0 -146 44q-89 43 -123 43q-36 0 -57 -26q-13 -15 -34 -56l-92 59q32 55 57 82q54 59 129 59q48 0 142 -44q98 -45 125 -45
q45 0 88 85z" />
    <glyph glyph-name="glyph145" unicode="&#xe3;" horiz-adv-x="1138" 
d="M858 242h-577l-92 -242h-169l444 1170h202l453 -1170h-168zM806 376l-239 625l-235 -625h474zM794 1543l91 -57q-81 -144 -180 -144q-54 0 -146 44q-89 43 -123 43q-36 0 -57 -26q-13 -15 -34 -56l-92 59q32 55 57 82q54 59 129 59q48 0 142 -44q98 -45 125 -45
q45 0 88 85z" />
    <glyph glyph-name="glyph146" unicode="&#xc4;" horiz-adv-x="1138" 
d="M858 242h-577l-92 -242h-169l444 1170h202l453 -1170h-168zM806 376l-239 625l-235 -625h474zM454 1521v-155h-184v155h184zM869 1521v-155h-184v155h184z" />
    <glyph glyph-name="glyph146" unicode="&#xe4;" horiz-adv-x="1138" 
d="M858 242h-577l-92 -242h-169l444 1170h202l453 -1170h-168zM806 376l-239 625l-235 -625h474zM454 1521v-155h-184v155h184zM869 1521v-155h-184v155h184z" />
    <glyph glyph-name="glyph147" unicode="&#xc5;" horiz-adv-x="1138" 
d="M858 242h-577l-92 -242h-169l444 1170h202l453 -1170h-168zM806 376l-239 625l-235 -625h474zM573 1646q76 0 130 -59q46 -52 46 -120q0 -81 -59 -134q-52 -46 -120 -46q-81 0 -134 59q-46 51 -46 122q0 77 59 132q51 46 124 46zM568 1568q-44 0 -74 -34q-26 -29 -26 -67
q0 -46 34 -76q28 -26 68 -26q45 0 75 34q26 28 26 68q0 44 -34 75q-28 26 -69 26z" />
    <glyph glyph-name="glyph147" unicode="&#xe5;" horiz-adv-x="1138" 
d="M858 242h-577l-92 -242h-169l444 1170h202l453 -1170h-168zM806 376l-239 625l-235 -625h474zM573 1646q76 0 130 -59q46 -52 46 -120q0 -81 -59 -134q-52 -46 -120 -46q-81 0 -134 59q-46 51 -46 122q0 77 59 132q51 46 124 46zM568 1568q-44 0 -74 -34q-26 -29 -26 -67
q0 -46 34 -76q28 -26 68 -26q45 0 75 34q26 28 26 68q0 44 -34 75q-28 26 -69 26z" />
    <glyph glyph-name="glyph148" unicode="&#xc6;" horiz-adv-x="1729" 
d="M1018 1028v-357h586v-139h-586v-390h612v-142h-771v239h-522l-130 -239h-188l651 1170h960v-142h-612zM859 381v647h-94l-351 -647h445z" />
    <glyph glyph-name="glyph148" unicode="&#xe6;" horiz-adv-x="1729" 
d="M1018 1028v-357h586v-139h-586v-390h612v-142h-771v239h-522l-130 -239h-188l651 1170h960v-142h-612zM859 381v647h-94l-351 -647h445z" />
    <glyph glyph-name="Ccedilla" unicode="&#xc7;" horiz-adv-x="1151" 
d="M619 -86v47h123v-62q-1 -174 -72 -239t-193 -70h-68v152h51q80 1 119 42.5t40 129.5zM917 412h159v-58q1 -145 -22 -207q-46 -127 -205 -153q-60 -10 -301 -10q-108 0 -154 4.5t-91 20.5q-176 59 -199 311q-10 116 -10 249q0 273 13 358q21 136 143 204q76 43 203 51
q62 4 225 4q154 0 215 -20q138 -45 166 -200q10 -57 10 -144q0 -10 -1 -32h-157q-1 39 -1 51q-2 142 -48 175q-40 29 -185 29q-192 0 -276 -11q-52 -7 -80.5 -29.5t-43.5 -68.5q-16 -50 -16 -166q0 -412 22 -514q13 -66 48 -93q40 -31 130 -35q55 -2 118 -2q145 0 212.5 9.5
t92.5 33.5q35 34 35 153q0 39 -2 90z" />
    <glyph glyph-name="glyph150" unicode="&#xc8;" horiz-adv-x="1036" 
d="M302 1028v-354h610v-139h-610v-393h635v-142h-794v1170h794v-142h-635zM360 1630l310 -234l-56 -85l-336 207z" />
    <glyph glyph-name="glyph150" unicode="&#xe8;" horiz-adv-x="1036" 
d="M302 1028v-354h610v-139h-610v-393h635v-142h-794v1170h794v-142h-635zM360 1630l310 -234l-56 -85l-336 207z" />
    <glyph glyph-name="glyph151" unicode="&#xc9;" horiz-adv-x="1036" 
d="M302 1028v-354h610v-139h-610v-393h635v-142h-794v1170h794v-142h-635zM712 1630l83 -112l-337 -207l-55 85z" />
    <glyph glyph-name="glyph151" unicode="&#xe9;" horiz-adv-x="1036" 
d="M302 1028v-354h610v-139h-610v-393h635v-142h-794v1170h794v-142h-635zM712 1630l83 -112l-337 -207l-55 85z" />
    <glyph glyph-name="glyph152" unicode="&#xca;" horiz-adv-x="1036" 
d="M302 1028v-354h610v-139h-610v-393h635v-142h-794v1170h794v-142h-635zM536 1617l300 -240l-64 -80l-236 173l-235 -173l-65 80z" />
    <glyph glyph-name="glyph152" unicode="&#xea;" horiz-adv-x="1036" 
d="M302 1028v-354h610v-139h-610v-393h635v-142h-794v1170h794v-142h-635zM536 1617l300 -240l-64 -80l-236 173l-235 -173l-65 80z" />
    <glyph glyph-name="glyph153" unicode="&#xcb;" horiz-adv-x="1036" 
d="M302 1028v-354h610v-139h-610v-393h635v-142h-794v1170h794v-142h-635zM421 1521v-155h-184v155h184zM836 1521v-155h-184v155h184z" />
    <glyph glyph-name="glyph153" unicode="&#xeb;" horiz-adv-x="1036" 
d="M302 1028v-354h610v-139h-610v-393h635v-142h-794v1170h794v-142h-635zM421 1521v-155h-184v155h184zM836 1521v-155h-184v155h184z" />
    <glyph glyph-name="glyph154" unicode="&#xcc;" horiz-adv-x="445" 
d="M302 1170v-1170h-159v1170h159zM49 1630l310 -234l-56 -85l-336 207z" />
    <glyph glyph-name="glyph154" unicode="&#xec;" horiz-adv-x="445" 
d="M302 1170v-1170h-159v1170h159zM49 1630l310 -234l-56 -85l-336 207z" />
    <glyph glyph-name="glyph155" unicode="&#xcd;" horiz-adv-x="445" 
d="M302 1170v-1170h-159v1170h159zM401 1630l83 -112l-337 -207l-55 85z" />
    <glyph glyph-name="glyph155" unicode="&#xed;" horiz-adv-x="445" 
d="M302 1170v-1170h-159v1170h159zM401 1630l83 -112l-337 -207l-55 85z" />
    <glyph glyph-name="Icircumflex" unicode="&#xce;" horiz-adv-x="445" 
d="M223 1617l300 -240l-64 -80l-236 173l-235 -173l-65 80zM302 1170v-1170h-159v1170h159z" />
    <glyph glyph-name="glyph157" unicode="&#xcf;" horiz-adv-x="445" 
d="M302 1170v-1170h-159v1170h159zM171 1521v-155h-184v155h184zM464 1521v-155h-184v155h184z" />
    <glyph glyph-name="glyph157" unicode="&#xef;" horiz-adv-x="445" 
d="M302 1170v-1170h-159v1170h159zM171 1521v-155h-184v155h184zM464 1521v-155h-184v155h184z" />
    <glyph glyph-name="Eth" unicode="&#xd0;" horiz-adv-x="1265" 
d="M165 531h-116v117h116v522h573q110 0 190 -20q121 -29 185 -149q59 -111 59 -362q0 -207 -9 -289q-25 -227 -171 -303q-55 -28 -169 -43q-31 -4 -53 -4h-605v531zM324 531v-389h386q186 0 241 66q46 55 57 186q5 57 5 166q0 199 -10 280q-18 134 -117 169q-54 19 -149 19
h-413v-380h300v-117h-300z" />
    <glyph glyph-name="glyph159" unicode="&#xd1;" horiz-adv-x="1321" 
d="M1179 1170v-1170h-235l-642 1023v-1023h-159v1170h234l643 -1023v1023h159zM886 1543l91 -57q-81 -144 -180 -144q-54 0 -146 44q-89 43 -123 43q-36 0 -57 -26q-13 -15 -34 -56l-92 59q32 55 57 82q54 59 129 59q48 0 142 -44q98 -45 125 -45q45 0 88 85z" />
    <glyph glyph-name="glyph159" unicode="&#xf1;" horiz-adv-x="1321" 
d="M1179 1170v-1170h-235l-642 1023v-1023h-159v1170h234l643 -1023v1023h159zM886 1543l91 -57q-81 -144 -180 -144q-54 0 -146 44q-89 43 -123 43q-36 0 -57 -26q-13 -15 -34 -56l-92 59q32 55 57 82q54 59 129 59q48 0 142 -44q98 -45 125 -45q45 0 88 85z" />
    <glyph glyph-name="glyph160" unicode="&#xd2;" horiz-adv-x="1220" 
d="M625 1186q131 0 199 -8.5t119 -30.5q148 -64 176 -286q8 -60 8 -218q0 -270 -9 -340q-15 -114 -52 -177t-110 -98q-74 -36 -192 -41q-61 -3 -154 -3q-157 0 -223.5 8.5t-122.5 35.5q-105 52 -141 176q-25 86 -27 203q-2 76 -2 230q0 162 8 225q28 220 176 285
q66 29 173 35q69 4 174 4zM594 1040q-115 0 -164 -4.5t-82 -18.5q-60 -25 -81 -111q-14 -60 -14 -140v-181q0 -212 4 -252q8 -81 28.5 -122t63.5 -59q38 -16 111 -19q58 -3 151 -3q124 0 177 4.5t85 17.5q60 25 81 112q14 61 14 140v181q0 212 -4 252q-8 82 -28.5 122.5
t-63.5 58.5q-39 16 -114 19q-61 3 -164 3zM434 1630l310 -234l-56 -85l-336 207z" />
    <glyph glyph-name="glyph160" unicode="&#xf2;" horiz-adv-x="1220" 
d="M625 1186q131 0 199 -8.5t119 -30.5q148 -64 176 -286q8 -60 8 -218q0 -270 -9 -340q-15 -114 -52 -177t-110 -98q-74 -36 -192 -41q-61 -3 -154 -3q-157 0 -223.5 8.5t-122.5 35.5q-105 52 -141 176q-25 86 -27 203q-2 76 -2 230q0 162 8 225q28 220 176 285
q66 29 173 35q69 4 174 4zM594 1040q-115 0 -164 -4.5t-82 -18.5q-60 -25 -81 -111q-14 -60 -14 -140v-181q0 -212 4 -252q8 -81 28.5 -122t63.5 -59q38 -16 111 -19q58 -3 151 -3q124 0 177 4.5t85 17.5q60 25 81 112q14 61 14 140v181q0 212 -4 252q-8 82 -28.5 122.5
t-63.5 58.5q-39 16 -114 19q-61 3 -164 3zM434 1630l310 -234l-56 -85l-336 207z" />
    <glyph glyph-name="glyph161" unicode="&#xd3;" horiz-adv-x="1220" 
d="M625 1186q131 0 199 -8.5t119 -30.5q148 -64 176 -286q8 -60 8 -218q0 -270 -9 -340q-15 -114 -52 -177t-110 -98q-74 -36 -192 -41q-61 -3 -154 -3q-157 0 -223.5 8.5t-122.5 35.5q-105 52 -141 176q-25 86 -27 203q-2 76 -2 230q0 162 8 225q28 220 176 285
q66 29 173 35q69 4 174 4zM594 1040q-115 0 -164 -4.5t-82 -18.5q-60 -25 -81 -111q-14 -60 -14 -140v-181q0 -212 4 -252q8 -81 28.5 -122t63.5 -59q38 -16 111 -19q58 -3 151 -3q124 0 177 4.5t85 17.5q60 25 81 112q14 61 14 140v181q0 212 -4 252q-8 82 -28.5 122.5
t-63.5 58.5q-39 16 -114 19q-61 3 -164 3zM786 1630l83 -112l-337 -207l-55 85z" />
    <glyph glyph-name="glyph161" unicode="&#xf3;" horiz-adv-x="1220" 
d="M625 1186q131 0 199 -8.5t119 -30.5q148 -64 176 -286q8 -60 8 -218q0 -270 -9 -340q-15 -114 -52 -177t-110 -98q-74 -36 -192 -41q-61 -3 -154 -3q-157 0 -223.5 8.5t-122.5 35.5q-105 52 -141 176q-25 86 -27 203q-2 76 -2 230q0 162 8 225q28 220 176 285
q66 29 173 35q69 4 174 4zM594 1040q-115 0 -164 -4.5t-82 -18.5q-60 -25 -81 -111q-14 -60 -14 -140v-181q0 -212 4 -252q8 -81 28.5 -122t63.5 -59q38 -16 111 -19q58 -3 151 -3q124 0 177 4.5t85 17.5q60 25 81 112q14 61 14 140v181q0 212 -4 252q-8 82 -28.5 122.5
t-63.5 58.5q-39 16 -114 19q-61 3 -164 3zM786 1630l83 -112l-337 -207l-55 85z" />
    <glyph glyph-name="glyph162" unicode="&#xd4;" horiz-adv-x="1220" 
d="M625 1186q131 0 199 -8.5t119 -30.5q148 -64 176 -286q8 -60 8 -218q0 -270 -9 -340q-15 -114 -52 -177t-110 -98q-74 -36 -192 -41q-61 -3 -154 -3q-157 0 -223.5 8.5t-122.5 35.5q-105 52 -141 176q-25 86 -27 203q-2 76 -2 230q0 162 8 225q28 220 176 285
q66 29 173 35q69 4 174 4zM594 1040q-115 0 -164 -4.5t-82 -18.5q-60 -25 -81 -111q-14 -60 -14 -140v-181q0 -212 4 -252q8 -81 28.5 -122t63.5 -59q38 -16 111 -19q58 -3 151 -3q124 0 177 4.5t85 17.5q60 25 81 112q14 61 14 140v181q0 212 -4 252q-8 82 -28.5 122.5
t-63.5 58.5q-39 16 -114 19q-61 3 -164 3zM610 1617l300 -240l-64 -80l-236 173l-235 -173l-65 80z" />
    <glyph glyph-name="glyph162" unicode="&#xf4;" horiz-adv-x="1220" 
d="M625 1186q131 0 199 -8.5t119 -30.5q148 -64 176 -286q8 -60 8 -218q0 -270 -9 -340q-15 -114 -52 -177t-110 -98q-74 -36 -192 -41q-61 -3 -154 -3q-157 0 -223.5 8.5t-122.5 35.5q-105 52 -141 176q-25 86 -27 203q-2 76 -2 230q0 162 8 225q28 220 176 285
q66 29 173 35q69 4 174 4zM594 1040q-115 0 -164 -4.5t-82 -18.5q-60 -25 -81 -111q-14 -60 -14 -140v-181q0 -212 4 -252q8 -81 28.5 -122t63.5 -59q38 -16 111 -19q58 -3 151 -3q124 0 177 4.5t85 17.5q60 25 81 112q14 61 14 140v181q0 212 -4 252q-8 82 -28.5 122.5
t-63.5 58.5q-39 16 -114 19q-61 3 -164 3zM610 1617l300 -240l-64 -80l-236 173l-235 -173l-65 80z" />
    <glyph glyph-name="glyph163" unicode="&#xd5;" horiz-adv-x="1220" 
d="M625 1186q131 0 199 -8.5t119 -30.5q148 -64 176 -286q8 -60 8 -218q0 -270 -9 -340q-15 -114 -52 -177t-110 -98q-74 -36 -192 -41q-61 -3 -154 -3q-157 0 -223.5 8.5t-122.5 35.5q-105 52 -141 176q-25 86 -27 203q-2 76 -2 230q0 162 8 225q28 220 176 285
q66 29 173 35q69 4 174 4zM594 1040q-115 0 -164 -4.5t-82 -18.5q-60 -25 -81 -111q-14 -60 -14 -140v-181q0 -212 4 -252q8 -81 28.5 -122t63.5 -59q38 -16 111 -19q58 -3 151 -3q124 0 177 4.5t85 17.5q60 25 81 112q14 61 14 140v181q0 212 -4 252q-8 82 -28.5 122.5
t-63.5 58.5q-39 16 -114 19q-61 3 -164 3zM835 1543l91 -57q-81 -144 -180 -144q-54 0 -146 44q-89 43 -123 43q-36 0 -57 -26q-13 -15 -34 -56l-92 59q32 55 57 82q54 59 129 59q48 0 142 -44q98 -45 125 -45q45 0 88 85z" />
    <glyph glyph-name="glyph163" unicode="&#xf5;" horiz-adv-x="1220" 
d="M625 1186q131 0 199 -8.5t119 -30.5q148 -64 176 -286q8 -60 8 -218q0 -270 -9 -340q-15 -114 -52 -177t-110 -98q-74 -36 -192 -41q-61 -3 -154 -3q-157 0 -223.5 8.5t-122.5 35.5q-105 52 -141 176q-25 86 -27 203q-2 76 -2 230q0 162 8 225q28 220 176 285
q66 29 173 35q69 4 174 4zM594 1040q-115 0 -164 -4.5t-82 -18.5q-60 -25 -81 -111q-14 -60 -14 -140v-181q0 -212 4 -252q8 -81 28.5 -122t63.5 -59q38 -16 111 -19q58 -3 151 -3q124 0 177 4.5t85 17.5q60 25 81 112q14 61 14 140v181q0 212 -4 252q-8 82 -28.5 122.5
t-63.5 58.5q-39 16 -114 19q-61 3 -164 3zM835 1543l91 -57q-81 -144 -180 -144q-54 0 -146 44q-89 43 -123 43q-36 0 -57 -26q-13 -15 -34 -56l-92 59q32 55 57 82q54 59 129 59q48 0 142 -44q98 -45 125 -45q45 0 88 85z" />
    <glyph glyph-name="glyph164" unicode="&#xd6;" horiz-adv-x="1220" 
d="M625 1186q131 0 199 -8.5t119 -30.5q148 -64 176 -286q8 -60 8 -218q0 -270 -9 -340q-15 -114 -52 -177t-110 -98q-74 -36 -192 -41q-61 -3 -154 -3q-157 0 -223.5 8.5t-122.5 35.5q-105 52 -141 176q-25 86 -27 203q-2 76 -2 230q0 162 8 225q28 220 176 285
q66 29 173 35q69 4 174 4zM594 1040q-115 0 -164 -4.5t-82 -18.5q-60 -25 -81 -111q-14 -60 -14 -140v-181q0 -212 4 -252q8 -81 28.5 -122t63.5 -59q38 -16 111 -19q58 -3 151 -3q124 0 177 4.5t85 17.5q60 25 81 112q14 61 14 140v181q0 212 -4 252q-8 82 -28.5 122.5
t-63.5 58.5q-39 16 -114 19q-61 3 -164 3zM495 1521v-155h-184v155h184zM910 1521v-155h-184v155h184z" />
    <glyph glyph-name="glyph164" unicode="&#xf6;" horiz-adv-x="1220" 
d="M625 1186q131 0 199 -8.5t119 -30.5q148 -64 176 -286q8 -60 8 -218q0 -270 -9 -340q-15 -114 -52 -177t-110 -98q-74 -36 -192 -41q-61 -3 -154 -3q-157 0 -223.5 8.5t-122.5 35.5q-105 52 -141 176q-25 86 -27 203q-2 76 -2 230q0 162 8 225q28 220 176 285
q66 29 173 35q69 4 174 4zM594 1040q-115 0 -164 -4.5t-82 -18.5q-60 -25 -81 -111q-14 -60 -14 -140v-181q0 -212 4 -252q8 -81 28.5 -122t63.5 -59q38 -16 111 -19q58 -3 151 -3q124 0 177 4.5t85 17.5q60 25 81 112q14 61 14 140v181q0 212 -4 252q-8 82 -28.5 122.5
t-63.5 58.5q-39 16 -114 19q-61 3 -164 3zM495 1521v-155h-184v155h184zM910 1521v-155h-184v155h184z" />
    <glyph glyph-name="multiply" unicode="&#xd7;" horiz-adv-x="1079" 
d="M444 573l-339 339l95 95l339 -338l339 338l95 -95l-339 -339l339 -338l-95 -95l-339 338l-339 -338l-95 95z" />
    <glyph glyph-name="Oslash" unicode="&#xd8;" horiz-adv-x="1124" 
d="M1087 1225v-164l-53 -56q19 -46 28 -87q17 -83 17 -267q0 -278 -9 -348q-15 -114 -52 -177t-110 -98q-75 -36 -187 -41q-56 -3 -133 -3q-160 0 -226 6t-115 24q-51 20 -93 55l-116 -124v164l51 54q-15 39 -22 72q-18 85 -20 172q-1 65 -1 208q0 189 8 247q29 220 176 285
q65 29 168 35q65 4 152 4q142 0 213 -7t118 -26q49 -19 88 -54zM866 990q-31 29 -74 39q-48 11 -273 11q-145 0 -195 -15q-46 -13 -69.5 -40t-36.5 -79q-14 -60 -14 -140l1 -181q0 -230 8 -290zM259 180q31 -29 74 -39q48 -11 272 -11q163 0 219 23q61 24 82 111
q14 61 14 140v181q0 229 -8 290z" />
    <glyph glyph-name="glyph167" unicode="&#xd9;" horiz-adv-x="1251" 
d="M949 1170h159v-813q0 -150 -33 -218q-49 -103 -176 -137q-69 -18 -267 -18q-141 0 -202.5 6t-108.5 24q-105 40 -145 125q-33 71 -33 218v813h159v-813q0 -124 21 -161q27 -46 105 -61q47 -9 181 -9q197 0 258 20q56 18 72 90q10 40 10 121v813zM448 1630l310 -234
l-56 -85l-336 207z" />
    <glyph glyph-name="glyph167" unicode="&#xf9;" horiz-adv-x="1251" 
d="M949 1170h159v-813q0 -150 -33 -218q-49 -103 -176 -137q-69 -18 -267 -18q-141 0 -202.5 6t-108.5 24q-105 40 -145 125q-33 71 -33 218v813h159v-813q0 -124 21 -161q27 -46 105 -61q47 -9 181 -9q197 0 258 20q56 18 72 90q10 40 10 121v813zM448 1630l310 -234
l-56 -85l-336 207z" />
    <glyph glyph-name="glyph168" unicode="&#xda;" horiz-adv-x="1251" 
d="M949 1170h159v-813q0 -150 -33 -218q-49 -103 -176 -137q-69 -18 -267 -18q-141 0 -202.5 6t-108.5 24q-105 40 -145 125q-33 71 -33 218v813h159v-813q0 -124 21 -161q27 -46 105 -61q47 -9 181 -9q197 0 258 20q56 18 72 90q10 40 10 121v813zM800 1630l83 -112
l-337 -207l-55 85z" />
    <glyph glyph-name="glyph168" unicode="&#xfa;" horiz-adv-x="1251" 
d="M949 1170h159v-813q0 -150 -33 -218q-49 -103 -176 -137q-69 -18 -267 -18q-141 0 -202.5 6t-108.5 24q-105 40 -145 125q-33 71 -33 218v813h159v-813q0 -124 21 -161q27 -46 105 -61q47 -9 181 -9q197 0 258 20q56 18 72 90q10 40 10 121v813zM800 1630l83 -112
l-337 -207l-55 85z" />
    <glyph glyph-name="glyph169" unicode="&#xdb;" horiz-adv-x="1251" 
d="M949 1170h159v-813q0 -150 -33 -218q-49 -103 -176 -137q-69 -18 -267 -18q-141 0 -202.5 6t-108.5 24q-105 40 -145 125q-33 71 -33 218v813h159v-813q0 -124 21 -161q27 -46 105 -61q47 -9 181 -9q197 0 258 20q56 18 72 90q10 40 10 121v813zM624 1617l300 -240
l-64 -80l-236 173l-235 -173l-65 80z" />
    <glyph glyph-name="glyph169" unicode="&#xfb;" horiz-adv-x="1251" 
d="M949 1170h159v-813q0 -150 -33 -218q-49 -103 -176 -137q-69 -18 -267 -18q-141 0 -202.5 6t-108.5 24q-105 40 -145 125q-33 71 -33 218v813h159v-813q0 -124 21 -161q27 -46 105 -61q47 -9 181 -9q197 0 258 20q56 18 72 90q10 40 10 121v813zM624 1617l300 -240
l-64 -80l-236 173l-235 -173l-65 80z" />
    <glyph glyph-name="glyph170" unicode="&#xdc;" horiz-adv-x="1251" 
d="M949 1170h159v-813q0 -150 -33 -218q-49 -103 -176 -137q-69 -18 -267 -18q-141 0 -202.5 6t-108.5 24q-105 40 -145 125q-33 71 -33 218v813h159v-813q0 -124 21 -161q27 -46 105 -61q47 -9 181 -9q197 0 258 20q56 18 72 90q10 40 10 121v813zM509 1521v-155h-184v155
h184zM924 1521v-155h-184v155h184z" />
    <glyph glyph-name="glyph170" unicode="&#xfc;" horiz-adv-x="1251" 
d="M949 1170h159v-813q0 -150 -33 -218q-49 -103 -176 -137q-69 -18 -267 -18q-141 0 -202.5 6t-108.5 24q-105 40 -145 125q-33 71 -33 218v813h159v-813q0 -124 21 -161q27 -46 105 -61q47 -9 181 -9q197 0 258 20q56 18 72 90q10 40 10 121v813zM509 1521v-155h-184v155
h184zM924 1521v-155h-184v155h184z" />
    <glyph glyph-name="glyph171" unicode="&#xdd;" horiz-adv-x="1068" 
d="M1067 1170l-459 -683v-487h-159v487l-448 683h187l345 -516l344 516h190zM709 1630l83 -112l-337 -207l-55 85z" />
    <glyph glyph-name="glyph171" unicode="&#xfd;" horiz-adv-x="1068" 
d="M1067 1170l-459 -683v-487h-159v487l-448 683h187l345 -516l344 516h190zM709 1630l83 -112l-337 -207l-55 85z" />
    <glyph glyph-name="Thorn" unicode="&#xde;" horiz-adv-x="1121" 
d="M143 0v1170h159v-218h365q112 0 159 -5.5t87 -23.5q146 -66 146 -336q0 -149 -40 -225q-51 -97 -160 -123q-38 -9 -212 -11h-345v-228h-159zM302 370h320q147 0 198 18q55 20 71 84q9 33 9 97q0 121 -15 168q-17 53 -78 66q-26 6 -144 7h-361v-440z" />
    <glyph glyph-name="germandbls" unicode="&#xdf;" horiz-adv-x="1112" 
d="M433 538v140h205q115 0 149 47q25 34 25 125q0 98 -19 148q-10 27 -32.5 39t-71.5 18q-43 4 -154 4t-159.5 -7t-71.5 -27q-36 -30 -36 -153v-952h-152l1 952q0 196 89 265q64 49 173 57q70 5 163 5q173 0 243 -19q128 -34 164 -137q20 -57 20 -151q0 -163 -49 -222
q-32 -39 -96 -59q65 -16 99 -46q68 -59 68 -227q0 -197 -77 -270q-55 -52 -143 -66q-94 -14 -218 -14h-123v140h158q175 0 215 46q31 36 31 182q0 102 -37 141q-29 31 -79 37q-34 4 -80 4h-205z" />
    <glyph glyph-name="ccedilla" unicode="&#xe7;" horiz-adv-x="1151" 
d="M619 -86v47h123v-62q-1 -174 -72 -239t-193 -70h-68v152h51q80 1 119 42.5t40 129.5zM917 412h159v-58q1 -145 -22 -207q-46 -127 -205 -153q-60 -10 -301 -10q-108 0 -154 4.5t-91 20.5q-176 59 -199 311q-10 116 -10 249q0 273 13 358q21 136 143 204q76 43 203 51
q62 4 225 4q154 0 215 -20q138 -45 166 -200q10 -57 10 -144q0 -10 -1 -32h-157q-1 39 -1 51q-2 142 -48 175q-40 29 -185 29q-192 0 -276 -11q-52 -7 -80.5 -29.5t-43.5 -68.5q-16 -50 -16 -166q0 -412 22 -514q13 -66 48 -93q40 -31 130 -35q55 -2 118 -2q145 0 212.5 9.5
t92.5 33.5q35 34 35 153q0 39 -2 90z" />
    <glyph glyph-name="icircumflex" unicode="&#xee;" horiz-adv-x="445" 
d="M223 1617l300 -240l-64 -80l-236 173l-235 -173l-65 80zM302 1170v-1170h-159v1170h159z" />
    <glyph glyph-name="eth" unicode="&#xf0;" horiz-adv-x="1265" 
d="M165 531h-116v117h116v522h573q110 0 190 -20q121 -29 185 -149q59 -111 59 -362q0 -207 -9 -289q-25 -227 -171 -303q-55 -28 -169 -43q-31 -4 -53 -4h-605v531zM324 531v-389h386q186 0 241 66q46 55 57 186q5 57 5 166q0 199 -10 280q-18 134 -117 169q-54 19 -149 19
h-413v-380h300v-117h-300z" />
    <glyph glyph-name="divide" unicode="&#xf7;" horiz-adv-x="1079" 
d="M541 1000q40 0 67 -31q24 -27 24 -61q0 -41 -31 -69q-26 -24 -61 -24q-41 0 -69 31q-24 27 -24 62q0 39 30 68q26 24 64 24zM541 333q40 0 67 -31q24 -26 24 -61q0 -41 -31 -69q-26 -24 -61 -24q-41 0 -69 31q-24 26 -24 62q0 39 30 68q26 24 64 24zM66 638h946v-129
h-946v129z" />
    <glyph glyph-name="oslash" unicode="&#xf8;" horiz-adv-x="1124" 
d="M1087 1225v-164l-53 -56q19 -46 28 -87q17 -83 17 -267q0 -278 -9 -348q-15 -114 -52 -177t-110 -98q-75 -36 -187 -41q-56 -3 -133 -3q-160 0 -226 6t-115 24q-51 20 -93 55l-116 -124v164l51 54q-15 39 -22 72q-18 85 -20 172q-1 65 -1 208q0 189 8 247q29 220 176 285
q65 29 168 35q65 4 152 4q142 0 213 -7t118 -26q49 -19 88 -54zM866 990q-31 29 -74 39q-48 11 -273 11q-145 0 -195 -15q-46 -13 -69.5 -40t-36.5 -79q-14 -60 -14 -140l1 -181q0 -230 8 -290zM259 180q31 -29 74 -39q48 -11 272 -11q163 0 219 23q61 24 82 111
q14 61 14 140v181q0 229 -8 290z" />
    <glyph glyph-name="thorn" unicode="&#xfe;" horiz-adv-x="1121" 
d="M143 0v1170h159v-218h365q112 0 159 -5.5t87 -23.5q146 -66 146 -336q0 -149 -40 -225q-51 -97 -160 -123q-38 -9 -212 -11h-345v-228h-159zM302 370h320q147 0 198 18q55 20 71 84q9 33 9 97q0 121 -15 168q-17 53 -78 66q-26 6 -144 7h-361v-440z" />
    <glyph glyph-name="ydieresis" unicode="&#xff;" horiz-adv-x="1068" 
d="M1067 1170l-459 -683v-487h-159v487l-448 683h187l345 -516l344 516h190zM418 1521v-155h-184v155h184zM833 1521v-155h-184v155h184z" />
    <glyph glyph-name="ydieresis" unicode="&#x178;" horiz-adv-x="1068" 
d="M1067 1170l-459 -683v-487h-159v487l-448 683h187l345 -516l344 516h190zM418 1521v-155h-184v155h184zM833 1521v-155h-184v155h184z" />
    <glyph glyph-name="glyph181" unicode="&#x106;" horiz-adv-x="1151" 
d="M778 1630l83 -112l-337 -207l-55 85zM917 412h159v-58q1 -145 -22 -207q-46 -127 -205 -153q-60 -10 -301 -10q-108 0 -154 4.5t-91 20.5q-176 59 -199 311q-10 116 -10 249q0 273 13 358q21 136 143 204q76 43 203 51q62 4 225 4q154 0 215 -20q138 -45 166 -200
q10 -57 10 -144q0 -10 -1 -32h-157q-1 39 -1 51q-2 142 -48 175q-40 29 -185 29q-192 0 -276 -11q-52 -7 -80.5 -29.5t-43.5 -68.5q-16 -50 -16 -166q0 -412 22 -514q13 -66 48 -93q40 -31 130 -35q55 -2 118 -2q145 0 212.5 9.5t92.5 33.5q35 34 35 153q0 39 -2 90z" />
    <glyph glyph-name="glyph181" unicode="&#x107;" horiz-adv-x="1151" 
d="M778 1630l83 -112l-337 -207l-55 85zM917 412h159v-58q1 -145 -22 -207q-46 -127 -205 -153q-60 -10 -301 -10q-108 0 -154 4.5t-91 20.5q-176 59 -199 311q-10 116 -10 249q0 273 13 358q21 136 143 204q76 43 203 51q62 4 225 4q154 0 215 -20q138 -45 166 -200
q10 -57 10 -144q0 -10 -1 -32h-157q-1 39 -1 51q-2 142 -48 175q-40 29 -185 29q-192 0 -276 -11q-52 -7 -80.5 -29.5t-43.5 -68.5q-16 -50 -16 -166q0 -412 22 -514q13 -66 48 -93q40 -31 130 -35q55 -2 118 -2q145 0 212.5 9.5t92.5 33.5q35 34 35 153q0 39 -2 90z" />
    <glyph glyph-name="glyph182" unicode="&#x10c;" horiz-adv-x="1151" 
d="M576 1297l-300 240l65 80l235 -173l236 173l64 -80zM917 412h159v-58q1 -145 -22 -207q-46 -127 -205 -153q-60 -10 -301 -10q-108 0 -154 4.5t-91 20.5q-176 59 -199 311q-10 116 -10 249q0 273 13 358q21 136 143 204q76 43 203 51q62 4 225 4q154 0 215 -20
q138 -45 166 -200q10 -57 10 -144q0 -10 -1 -32h-157q-1 39 -1 51q-2 142 -48 175q-40 29 -185 29q-192 0 -276 -11q-52 -7 -80.5 -29.5t-43.5 -68.5q-16 -50 -16 -166q0 -412 22 -514q13 -66 48 -93q40 -31 130 -35q55 -2 118 -2q145 0 212.5 9.5t92.5 33.5q35 34 35 153
q0 39 -2 90z" />
    <glyph glyph-name="glyph182" unicode="&#x10d;" horiz-adv-x="1151" 
d="M576 1297l-300 240l65 80l235 -173l236 173l64 -80zM917 412h159v-58q1 -145 -22 -207q-46 -127 -205 -153q-60 -10 -301 -10q-108 0 -154 4.5t-91 20.5q-176 59 -199 311q-10 116 -10 249q0 273 13 358q21 136 143 204q76 43 203 51q62 4 225 4q154 0 215 -20
q138 -45 166 -200q10 -57 10 -144q0 -10 -1 -32h-157q-1 39 -1 51q-2 142 -48 175q-40 29 -185 29q-192 0 -276 -11q-52 -7 -80.5 -29.5t-43.5 -68.5q-16 -50 -16 -166q0 -412 22 -514q13 -66 48 -93q40 -31 130 -35q55 -2 118 -2q145 0 212.5 9.5t92.5 33.5q35 34 35 153
q0 39 -2 90z" />
    <glyph glyph-name="dcroat" unicode="&#x111;" horiz-adv-x="1258" 
d="M158 531h-116v117h116v522h573q110 0 190 -20q121 -29 185 -149q59 -111 59 -362q0 -207 -9 -289q-25 -227 -171 -303q-55 -28 -169 -43q-31 -4 -53 -4h-605v531zM317 531v-389h386q186 0 241 66q46 55 57 186q5 57 5 166q0 199 -10 280q-18 134 -117 169q-54 19 -149 19
h-413v-380h300v-117h-300z" />
    <glyph glyph-name="glyph184" unicode="&#x11e;" horiz-adv-x="1192" 
d="M305 1604h111q13 -60 48 -100q60 -67 144 -67q85 0 145 67q35 40 47 100h112q-16 -100 -64 -164q-51 -66 -128 -99q-55 -23 -112 -23q-90 0 -169 55q-109 77 -134 231zM577 597h518q5 -58 5 -128q0 -128 -3 -185q-12 -208 -159 -269q-76 -31 -343 -31q-178 0 -260 18.5
t-139 70.5q-88 81 -98 241q-4 64 -3 162q0 20 -1 124v48q0 157 12.5 239.5t45.5 146.5q59 115 208 142q59 10 219 10q180 0 242 -4.5t108 -19.5q152 -53 165 -229q3 -31 3 -124h-158q-1 131 -21 174q-21 45 -112 55q-65 7 -241 7q-144 0 -207 -18q-71 -20 -91 -118
q-11 -51 -14 -321q1 -212 3 -249q4 -90 28.5 -135.5t77.5 -59.5q67 -19 292 -19q117 0 174.5 11.5t79.5 39.5q33 42 33 220q0 20 -1 59h-363v142z" />
    <glyph glyph-name="glyph184" unicode="&#x11f;" horiz-adv-x="1192" 
d="M305 1604h111q13 -60 48 -100q60 -67 144 -67q85 0 145 67q35 40 47 100h112q-16 -100 -64 -164q-51 -66 -128 -99q-55 -23 -112 -23q-90 0 -169 55q-109 77 -134 231zM577 597h518q5 -58 5 -128q0 -128 -3 -185q-12 -208 -159 -269q-76 -31 -343 -31q-178 0 -260 18.5
t-139 70.5q-88 81 -98 241q-4 64 -3 162q0 20 -1 124v48q0 157 12.5 239.5t45.5 146.5q59 115 208 142q59 10 219 10q180 0 242 -4.5t108 -19.5q152 -53 165 -229q3 -31 3 -124h-158q-1 131 -21 174q-21 45 -112 55q-65 7 -241 7q-144 0 -207 -18q-71 -20 -91 -118
q-11 -51 -14 -321q1 -212 3 -249q4 -90 28.5 -135.5t77.5 -59.5q67 -19 292 -19q117 0 174.5 11.5t79.5 39.5q33 42 33 220q0 20 -1 59h-363v142z" />
    <glyph glyph-name="Idotaccent" unicode="&#x130;" horiz-adv-x="489" 
d="M326.781 1469v-155h-162v155h162zM324 1170v-1170h-159v1170h159z" />
    <glyph glyph-name="dotlessi" unicode="&#x131;" horiz-adv-x="445" 
d="M302 1170v-1170h-159v1170h159z" />
    <glyph glyph-name="Lslash" unicode="&#x141;" horiz-adv-x="997" 
d="M342 724l144 130v-144l-144 -131v-428h617v-151h-776v434l-135 -123v148l135 122v589h159v-446z" />
    <glyph glyph-name="lslash" unicode="&#x142;" horiz-adv-x="997" 
d="M342 724l144 130v-144l-144 -131v-428h617v-151h-776v434l-135 -123v148l135 122v589h159v-446z" />
    <glyph glyph-name="OE" unicode="&#x152;" horiz-adv-x="1820" 
d="M1105 1028v-354h591v-139h-591v-393h616v-142h-771l2 85q-78 -68 -140 -86q-52 -15 -202 -15q-197 0 -257 11q-97 19 -160.5 84.5t-84.5 169.5q-14 72 -14 194q0 159 1 293q1 194 50 284q66 124 233 154q64 12 192 12q195 0 268 -24q50 -18 113 -78v86h770v-142h-616z
M943 398v355q0 132 -25 200q-14 37 -43 56t-87 27q-65 9 -268 9q-164 0 -213 -52q-49 -53 -52 -253q-1 -91 -1 -305q0 -154 32 -223q30 -67 135 -80q44 -6 170 -6q175 0 228 14q85 23 108 102q16 58 16 156z" />
    <glyph glyph-name="oe" unicode="&#x153;" horiz-adv-x="1820" 
d="M1105 1028v-354h591v-139h-591v-393h616v-142h-771l2 85q-78 -68 -140 -86q-52 -15 -202 -15q-197 0 -257 11q-97 19 -160.5 84.5t-84.5 169.5q-14 72 -14 194q0 159 1 293q1 194 50 284q66 124 233 154q64 12 192 12q195 0 268 -24q50 -18 113 -78v86h770v-142h-616z
M943 398v355q0 132 -25 200q-14 37 -43 56t-87 27q-65 9 -268 9q-164 0 -213 -52q-49 -53 -52 -253q-1 -91 -1 -305q0 -154 32 -223q30 -67 135 -80q44 -6 170 -6q175 0 228 14q85 23 108 102q16 58 16 156z" />
    <glyph glyph-name="glyph191" unicode="&#x15e;" horiz-adv-x="1097" 
d="M588 -86v47h123v-62q-1 -174 -72 -239t-193 -70h-68v152h51q80 1 119 42.5t40 129.5zM988 830h-159q0 83 -7 117q-13 66 -82 85q-44 12 -157 12q-159 0 -205 -8q-86 -14 -110 -77q-14 -38 -14 -100q0 -79 19 -121q22 -47 109 -58q32 -4 189 -10q174 -7 237 -19
q126 -26 172 -123q29 -62 29 -192q0 -189 -62 -259q-64 -72 -183 -84q-91 -9 -246 -9q-188 0 -252 20q-150 48 -172 231q-5 39 -7 148h159v-44q1 -86 13 -126.5t43 -61.5q29 -20 92 -22q69 -3 164 -3q130 0 184 10t78 39q30 35 30 176q0 68 -15 101q-20 47 -99 57
q-39 5 -197 11q-157 7 -198 12q-131 19 -193 100q-53 68 -53 210q0 204 91 274q70 54 181 64q79 6 183 6q199 0 273 -25q151 -50 164 -240q1 -21 1 -91z" />
    <glyph glyph-name="glyph191" unicode="&#x15f;" horiz-adv-x="1097" 
d="M588 -86v47h123v-62q-1 -174 -72 -239t-193 -70h-68v152h51q80 1 119 42.5t40 129.5zM988 830h-159q0 83 -7 117q-13 66 -82 85q-44 12 -157 12q-159 0 -205 -8q-86 -14 -110 -77q-14 -38 -14 -100q0 -79 19 -121q22 -47 109 -58q32 -4 189 -10q174 -7 237 -19
q126 -26 172 -123q29 -62 29 -192q0 -189 -62 -259q-64 -72 -183 -84q-91 -9 -246 -9q-188 0 -252 20q-150 48 -172 231q-5 39 -7 148h159v-44q1 -86 13 -126.5t43 -61.5q29 -20 92 -22q69 -3 164 -3q130 0 184 10t78 39q30 35 30 176q0 68 -15 101q-20 47 -99 57
q-39 5 -197 11q-157 7 -198 12q-131 19 -193 100q-53 68 -53 210q0 204 91 274q70 54 181 64q79 6 183 6q199 0 273 -25q151 -50 164 -240q1 -21 1 -91z" />
    <glyph glyph-name="glyph192" unicode="&#x160;" horiz-adv-x="1097" 
d="M988 830h-159q0 83 -7 117q-13 66 -82 85q-44 12 -157 12q-159 0 -205 -8q-86 -14 -110 -77q-14 -38 -14 -100q0 -79 19 -121q22 -47 109 -58q32 -4 189 -10q174 -7 237 -19q126 -26 172 -123q29 -62 29 -192q0 -189 -62 -259q-64 -72 -183 -84q-91 -9 -246 -9
q-188 0 -252 20q-150 48 -172 231q-5 39 -7 148h159v-44q1 -86 13 -126.5t43 -61.5q29 -20 92 -22q69 -3 164 -3q130 0 184 10t78 39q30 35 30 176q0 68 -15 101q-20 47 -99 57q-39 5 -197 11q-157 7 -198 12q-131 19 -193 100q-53 68 -53 210q0 204 91 274q70 54 181 64
q79 6 183 6q199 0 273 -25q151 -50 164 -240q1 -21 1 -91zM549 1297l-300 240l65 80l235 -173l236 173l64 -80z" />
    <glyph glyph-name="glyph192" unicode="&#x161;" horiz-adv-x="1097" 
d="M988 830h-159q0 83 -7 117q-13 66 -82 85q-44 12 -157 12q-159 0 -205 -8q-86 -14 -110 -77q-14 -38 -14 -100q0 -79 19 -121q22 -47 109 -58q32 -4 189 -10q174 -7 237 -19q126 -26 172 -123q29 -62 29 -192q0 -189 -62 -259q-64 -72 -183 -84q-91 -9 -246 -9
q-188 0 -252 20q-150 48 -172 231q-5 39 -7 148h159v-44q1 -86 13 -126.5t43 -61.5q29 -20 92 -22q69 -3 164 -3q130 0 184 10t78 39q30 35 30 176q0 68 -15 101q-20 47 -99 57q-39 5 -197 11q-157 7 -198 12q-131 19 -193 100q-53 68 -53 210q0 204 91 274q70 54 181 64
q79 6 183 6q199 0 273 -25q151 -50 164 -240q1 -21 1 -91zM549 1297l-300 240l65 80l235 -173l236 173l64 -80z" />
    <glyph glyph-name="glyph193" unicode="&#x17d;" horiz-adv-x="1076" 
d="M999 1170v-132l-736 -896h751v-142h-951v135l733 893h-713v142h916zM538 1297l-300 240l65 80l235 -173l236 173l64 -80z" />
    <glyph glyph-name="glyph193" unicode="&#x17e;" horiz-adv-x="1076" 
d="M999 1170v-132l-736 -896h751v-142h-951v135l733 893h-713v142h916zM538 1297l-300 240l65 80l235 -173l236 173l64 -80z" />
    <glyph glyph-name="florin" unicode="&#x192;" horiz-adv-x="777" 
d="M459 772l-133 -754q-12 -71 -30 -120q-29 -84 -111 -110q-69 -22 -162 -22q-25 0 -106 7l22 127q67 -6 105 -6q78 0 103 35q17 24 27 84l134 759h-159l22 126h159l30 168q22 122 61 174q59 78 241 78q31 0 92 -4l15 -1l-22 -127q-14 1 -34 2q-29 2 -64 2q-86 0 -111 -35
q-15 -22 -26 -84l-31 -173h215l-22 -126h-215z" />
    <glyph glyph-name="circumflex" unicode="&#x2c6;" 
d="M512 1617l300 -240l-64 -80l-236 173l-235 -173l-65 80z" />
    <glyph glyph-name="caron" unicode="&#x2c7;" 
d="M512 1297l-300 240l65 80l235 -173l236 173l64 -80z" />
    <glyph glyph-name="uni02C9" unicode="&#x2c9;" 
d="M225 1509h575v-130h-575v130z" />
    <glyph glyph-name="breve" unicode="&#x2d8;" 
d="M209 1604h111q13 -60 48 -100q60 -67 144 -67q85 0 145 67q35 40 47 100h112q-16 -100 -64 -164q-51 -66 -128 -99q-55 -23 -112 -23q-90 0 -169 55q-109 77 -134 231z" />
    <glyph glyph-name="dotaccent" unicode="&#x2d9;" 
d="M604 1521v-155h-184v155h184z" />
    <glyph glyph-name="ring" unicode="&#x2da;" 
d="M516 1646q76 0 130 -59q46 -52 46 -120q0 -81 -59 -134q-52 -46 -120 -46q-81 0 -134 59q-46 51 -46 122q0 77 59 132q51 46 124 46zM511 1568q-44 0 -74 -34q-26 -29 -26 -67q0 -46 34 -76q28 -26 68 -26q45 0 75 34q26 28 26 68q0 44 -34 75q-28 26 -69 26z" />
    <glyph glyph-name="ogonek" unicode="&#x2db;" 
d="M794 0h119q-168 -102 -168 -188q0 -53 45 -86q31 -23 89 -23q43 0 84 16v-102q-58 -19 -108 -19q-53 0 -99 16q-51 18 -83 61q-37 49 -37 109q0 126 158 216z" />
    <glyph glyph-name="tilde" unicode="&#x2dc;" 
d="M737 1543l91 -57q-81 -144 -180 -144q-54 0 -146 44q-89 43 -123 43q-36 0 -57 -26q-13 -15 -34 -56l-92 59q32 55 57 82q54 59 129 59q48 0 142 -44q98 -45 125 -45q45 0 88 85z" />
    <glyph glyph-name="hungarumlaut" unicode="&#x2dd;" 
d="M526 1628l87 -96l-292 -224l-59 73zM832 1628l87 -96l-291 -224l-60 73z" />
    <glyph glyph-name="pi" unicode="&#x3c0;" horiz-adv-x="1136" 
d="M187 0v861h-148v119h1057v-119h-147v-861h-146v861h-470v-861h-146z" />
    <glyph glyph-name="uni0401" unicode="&#x401;" horiz-adv-x="1036" 
d="M302 1028v-354h610v-139h-610v-393h635v-142h-794v1170h794v-142h-635zM425 1521v-155h-184v155h184zM840 1521v-155h-184v155h184z" />
    <glyph glyph-name="uni0410" unicode="&#x410;" horiz-adv-x="1138" 
d="M858 242h-577l-92 -242h-169l444 1170h202l453 -1170h-168zM806 376l-239 625l-235 -625h474z" />
    <glyph glyph-name="uni0411" unicode="&#x411;" horiz-adv-x="1121" 
d="M302 142h361q118 1 144 7q61 13 78 65q15 48 15 169q0 64 -9 96q-17 64 -71 84q-51 18 -198 18h-320v-439zM302 1031v-308h345q174 -2 212 -11q108 -26 160 -123q40 -76 40 -224q0 -270 -146 -336q-40 -18 -87 -23.5t-159 -5.5h-524v1170h765v-139h-606z" />
    <glyph glyph-name="uni0412" unicode="&#x412;" horiz-adv-x="1170" 
d="M143 0v1170h550q102 0 142 -5q120 -15 173 -103q40 -68 40 -209q0 -143 -59 -201q-28 -28 -105 -38q79 -5 118 -34q81 -63 81 -242q0 -224 -117 -293q-75 -45 -219 -45h-604zM302 669h354q128 0 174 24q39 22 52 71q7 30 7 90q0 81 -15 113q-22 49 -89 58q-24 3 -95 3
h-388v-359zM302 142h288q147 1 175 3q122 6 145 68q14 40 14 110q0 84 -15 128q-19 60 -105 72q-25 4 -156 4h-346v-385z" />
    <glyph glyph-name="uni0413" unicode="&#x413;" horiz-adv-x="960" 
d="M302 1028v-1028h-159v1170h761v-142h-602z" />
    <glyph glyph-name="uni0414" unicode="&#x414;" horiz-adv-x="1574" 
d="M1141 134v898h-668v-551h-1v-130q0 -102 -11 -157q-6 -32 -19 -60h699zM210 134q29 6 44 15q48 31 55 124q4 46 4 99v798h987v-1036h156v-410h-159v272h-1041q-8 -1 -15 -3v-269h-159v410h128z" />
    <glyph glyph-name="uni0415" unicode="&#x415;" horiz-adv-x="1036" 
d="M302 1028v-354h610v-139h-610v-393h635v-142h-794v1170h794v-142h-635z" />
    <glyph glyph-name="uni0416" unicode="&#x416;" horiz-adv-x="2130" 
d="M1164 1170v-498h104l482 498h210l-551 -567l615 -603h-220l-536 527h-104v-527h-161v527h-104l-536 -527h-220l615 603l-551 567h210l482 -498h104v498h161z" />
    <glyph glyph-name="uni0417" unicode="&#x417;" horiz-adv-x="1112" 
d="M433 538v140h205q115 0 149 47q25 34 25 125q0 98 -19 148q-10 27 -32.5 39t-71.5 18q-43 4 -154 4t-159.5 -7t-71.5 -27q-36 -30 -36 -153v-68h-151v68q0 196 89 265q64 49 173 57q70 5 163 5q173 0 243 -19q128 -34 164 -137q20 -57 20 -151q0 -163 -49 -222
q-32 -39 -96 -59q65 -16 99 -46q68 -59 68 -227q0 -197 -77 -270q-55 -52 -143 -66q-94 -14 -218 -14q-204 0 -288 28q-110 37 -148 140q-20 54 -20 181v68h154v-68q0 -135 38 -175q24 -24 100 -30q52 -4 199 -4q175 0 215 46q31 36 31 182q0 102 -37 141q-29 31 -79 37
q-34 4 -80 4h-205z" />
    <glyph glyph-name="uni0418" unicode="&#x418;" horiz-adv-x="1321" 
d="M302 1170v-1023l643 1023h234v-1170h-159v1023l-642 -1023h-235v1170h159z" />
    <glyph glyph-name="uni0419" unicode="&#x419;" horiz-adv-x="1321" 
d="M302 1170v-1023l643 1023h234v-1170h-159v1023l-642 -1023h-235v1170h159zM358 1604h111q13 -60 48 -100q60 -67 144 -67q85 0 145 67q35 40 47 100h112q-16 -100 -64 -164q-51 -66 -128 -99q-55 -23 -112 -23q-90 0 -169 55q-109 77 -134 231z" />
    <glyph glyph-name="uni041A" unicode="&#x41a;" horiz-adv-x="1159" 
d="M302 1170v-498h106l482 498h210l-551 -567l615 -603h-220l-536 527h-106v-527h-159v1170h159z" />
    <glyph glyph-name="uni041B" unicode="&#x41b;" horiz-adv-x="1427" 
d="M472 481v-130q0 -102 -11 -157t-39 -96q-48 -68 -130 -93q-68 -21 -190 -21h-11v142h5q121 0 158 23q48 31 55 124q4 46 4 99v798h987v-1170h-159v1032h-668v-551h-1z" />
    <glyph glyph-name="uni041C" unicode="&#x41c;" horiz-adv-x="1598" 
d="M1455 1170v-1170h-159v1023l-421 -1023h-150l-423 1023v-1023h-159v1170h248l407 -999l406 999h251z" />
    <glyph glyph-name="uni041D" unicode="&#x41d;" horiz-adv-x="1271" 
d="M1129 1170v-1170h-159v529h-668v-529h-159v1170h159v-502h668v502h159z" />
    <glyph glyph-name="uni041E" unicode="&#x41e;" horiz-adv-x="1220" 
d="M594 1040q-115 0 -164 -4.5t-82 -18.5q-60 -25 -81 -111q-14 -60 -14 -140v-181q0 -212 4 -252q8 -81 28.5 -122t63.5 -59q38 -16 111 -19q58 -3 151 -3q124 0 177 4.5t85 17.5q60 25 81 112q14 61 14 140v181q0 212 -4 252q-8 82 -28.5 122.5t-63.5 58.5q-39 16 -114 19
q-61 3 -164 3zM625 1186q131 0 199 -8.5t119 -30.5q148 -64 176 -286q8 -60 8 -218q0 -270 -9 -340q-15 -114 -52 -177t-110 -98q-74 -36 -192 -41q-61 -3 -154 -3q-157 0 -223.5 8.5t-122.5 35.5q-105 52 -141 176q-25 86 -27 203q-2 76 -2 230q0 162 8 225q28 220 176 285
q66 29 173 35q69 4 174 4z" />
    <glyph glyph-name="uni041F" unicode="&#x41f;" horiz-adv-x="1271" 
d="M1129 1170v-1170h-159v1032h-668v-1032h-159v1170h986z" />
    <glyph glyph-name="uni0420" unicode="&#x420;" horiz-adv-x="1121" 
d="M143 0v1170h524q112 0 159 -5.5t87 -23.5q146 -66 146 -336q0 -148 -40 -224q-52 -97 -160 -123q-38 -9 -212 -11h-345v-447h-159zM302 589h320q147 0 198 18q54 20 71 84q9 32 9 96q0 121 -15 169q-17 52 -78 65q-26 6 -144 7h-361v-439z" />
    <glyph glyph-name="uni0421" unicode="&#x421;" horiz-adv-x="1151" 
d="M917 412h159v-58q1 -145 -22 -207q-46 -127 -205 -153q-60 -10 -301 -10q-108 0 -154 4.5t-91 20.5q-176 59 -199 311q-10 116 -10 249q0 273 13 358q21 136 143 204q76 43 203 51q62 4 225 4q154 0 215 -20q138 -45 166 -200q10 -57 10 -144q0 -10 -1 -32h-157
q-1 39 -1 51q-2 142 -48 175q-40 29 -185 29q-192 0 -276 -11q-52 -7 -80.5 -29.5t-43.5 -68.5q-16 -50 -16 -166q0 -412 22 -514q13 -66 48 -93q40 -31 130 -35q55 -2 118 -2q145 0 212.5 9.5t92.5 33.5q35 34 35 153q0 39 -2 90z" />
    <glyph glyph-name="uni0422" unicode="&#x422;" horiz-adv-x="1007" 
d="M584 1019v-1019h-159v1019h-387v151h930v-151h-384z" />
    <glyph glyph-name="uni0423" unicode="&#x423;" horiz-adv-x="1067" 
d="M478 472l-477 698h187l367 -552l322 552h190q-611 -1031 -639 -1072q-48 -68 -130 -93q-35 -11 -164 -16l1 137q93 3 125 23q48 31 218 323z" />
    <glyph glyph-name="uni0424" unicode="&#x424;" horiz-adv-x="1935" 
d="M893 228h-338q-174 2 -212 11q-109 26 -160 123q-40 76 -40 225q0 270 146 336q40 18 87 23.5t159 5.5h358v218h166v-218h358q112 0 159 -5.5t87 -23.5q146 -66 146 -336q0 -149 -40 -225q-51 -97 -160 -123q-38 -9 -212 -11h-338v-228h-166v228zM1059 810v-440h313
q147 0 198 18q55 20 71 84q9 33 9 97q0 121 -15 168q-17 53 -78 66q-26 6 -144 7h-354zM893 370v440h-354q-118 -1 -144 -7q-61 -13 -78 -66q-15 -47 -15 -168q0 -64 9 -97q16 -64 71 -84q51 -18 198 -18h313z" />
    <glyph glyph-name="uni0425" unicode="&#x425;" horiz-adv-x="1101" 
d="M1073 1170l-390 -565l418 -605h-190l-353 506l-361 -506h-196l433 605l-401 565h194l331 -469l326 469h189z" />
    <glyph glyph-name="uni0426" unicode="&#x426;" horiz-adv-x="1400" 
d="M1109 0h-966v1170h159v-1032h668v1032h159v-1029h139v-410h-159v269z" />
    <glyph glyph-name="uni0427" unicode="&#x427;" horiz-adv-x="1121" 
d="M900 1028h-21v142h180v-1170h-159v447h-345q-174 2 -212 11q-108 26 -160 123q-28 53 -36 142q-2 19 -3 40h4v265h-21v142h180v-407h-5q2 -46 9 -72q17 -64 71 -84q51 -18 198 -18h320v439z" />
    <glyph glyph-name="uni0428" unicode="&#x428;" horiz-adv-x="1663" 
d="M143 0v1170h159v-1028h443v1028h167v-1028h443v1028h159v-1170h-1371z" />
    <glyph glyph-name="uni0429" unicode="&#x429;" horiz-adv-x="1725" 
d="M1443 0h-1300v1170h159v-1028h443v1028h167v-1028h443v1028h159v-1029h81v-383h-152v242z" />
    <glyph glyph-name="uni042A" unicode="&#x42a;" horiz-adv-x="1487" 
d="M642 142h361q118 1 144 7q61 13 78 65q15 48 15 169q0 64 -9 96q-17 64 -71 84q-51 18 -198 18h-320v-439zM642 723h345q174 -2 212 -11q108 -26 160 -123q40 -76 40 -224q0 -270 -146 -336q-40 -18 -87 -23.5t-159 -5.5h-524v1002h-393v168h552v-447z" />
    <glyph glyph-name="uni042B" unicode="&#x42b;" horiz-adv-x="1515" 
d="M302 142h361q118 1 144 7q61 13 78 65q15 48 15 169q0 64 -9 96q-17 64 -71 84q-51 18 -198 18h-320v-439zM302 1170v-447h345q174 -2 212 -11q108 -26 160 -123q40 -76 40 -224q0 -270 -146 -336q-40 -18 -87 -23.5t-159 -5.5h-524v1170h159zM1190 0v1170h159v-1170
h-159z" />
    <glyph glyph-name="uni042C" unicode="&#x42c;" horiz-adv-x="1121" 
d="M302 142h361q118 1 144 7q61 13 78 65q15 48 15 169q0 64 -9 96q-17 64 -71 84q-51 18 -198 18h-320v-439zM302 1170v-447h345q174 -2 212 -11q108 -26 160 -123q40 -76 40 -224q0 -270 -146 -336q-40 -18 -87 -23.5t-159 -5.5h-524v1170h159z" />
    <glyph glyph-name="uni042D" unicode="&#x42d;" horiz-adv-x="1151" 
d="M342 510v123h566q1 64 1 137q0 116 -16 166q-15 46 -43.5 68.5t-80.5 29.5q-84 11 -276 11q-145 0 -185 -29q-46 -33 -48 -175q0 -12 -1 -51h-157q-1 22 -1 32q0 87 10 144q28 155 166 200q61 20 215 20q163 0 225 -4q127 -8 203 -51q122 -68 143 -204q13 -85 13 -358
q0 -133 -10 -249q-23 -252 -199 -311q-45 -16 -91 -20.5t-154 -4.5q-241 0 -301 10q-159 26 -205 153q-23 62 -22 207v58h159q-2 -51 -2 -90q0 -119 35 -153q25 -24 92.5 -33.5t212.5 -9.5q63 0 118 2q90 4 130 35q35 27 48 93q14 65 19 254h-564z" />
    <glyph glyph-name="uni042E" unicode="&#x42e;" horiz-adv-x="1791" 
d="M1117 1040q-115 0 -164 -4.5t-82 -18.5q-60 -25 -81 -111q-14 -60 -14 -140v-181q0 -212 4 -252q8 -81 28.5 -122t63.5 -59q38 -16 111 -19q58 -3 151 -3q124 0 177 4.5t85 17.5q60 25 81 112q14 61 14 140v181q0 212 -4 252q-8 82 -28.5 122.5t-63.5 58.5
q-39 16 -114 19q-61 3 -164 3zM617 529h-315v-529h-159v1170h159v-502h315q1 137 8 194q28 220 176 285q66 29 173 35q69 4 174 4q131 0 199 -8.5t119 -30.5q148 -64 176 -286q8 -60 8 -218q0 -270 -9 -340q-15 -114 -52 -177t-110 -98q-74 -36 -192 -41q-61 -3 -154 -3
q-157 0 -223.5 8.5t-122.5 35.5q-105 52 -141 176q-25 86 -27 203q-1 46 -2 122z" />
    <glyph glyph-name="uni042F" unicode="&#x42f;" horiz-adv-x="1193" 
d="M923 0v459h-404q-101 2 -152 -35q-49 -40 -49 -148v-276h-159v306q1 211 173 222q-109 10 -150 84q-39 68 -39 218q0 91 15 147q26 94 97 140q81 53 237 53h590v-1170h-159zM923 1028h-432q-126 0 -161 -49q-28 -40 -28 -195q0 -114 61 -151q53 -32 172 -32h388v427z" />
    <glyph glyph-name="uni0430" unicode="&#x430;" horiz-adv-x="1138" 
d="M858 242h-577l-92 -242h-169l444 1170h202l453 -1170h-168zM806 376l-239 625l-235 -625h474z" />
    <glyph glyph-name="uni0431" unicode="&#x431;" horiz-adv-x="1121" 
d="M302 142h361q118 1 144 7q61 13 78 65q15 48 15 169q0 64 -9 96q-17 64 -71 84q-51 18 -198 18h-320v-439zM302 1031v-308h345q174 -2 212 -11q108 -26 160 -123q40 -76 40 -224q0 -270 -146 -336q-40 -18 -87 -23.5t-159 -5.5h-524v1170h765v-139h-606z" />
    <glyph glyph-name="uni0432" unicode="&#x432;" horiz-adv-x="1170" 
d="M143 0v1170h550q102 0 142 -5q120 -15 173 -103q40 -68 40 -209q0 -143 -59 -201q-28 -28 -105 -38q79 -5 118 -34q81 -63 81 -242q0 -224 -117 -293q-75 -45 -219 -45h-604zM302 669h354q128 0 174 24q39 22 52 71q7 30 7 90q0 81 -15 113q-22 49 -89 58q-24 3 -95 3
h-388v-359zM302 142h288q147 1 175 3q122 6 145 68q14 40 14 110q0 84 -15 128q-19 60 -105 72q-25 4 -156 4h-346v-385z" />
    <glyph glyph-name="uni0433" unicode="&#x433;" horiz-adv-x="960" 
d="M302 1028v-1028h-159v1170h761v-142h-602z" />
    <glyph glyph-name="uni0434" unicode="&#x434;" horiz-adv-x="1574" 
d="M1141 134v898h-668v-551h-1v-130q0 -102 -11 -157q-6 -32 -19 -60h699zM210 134q29 6 44 15q48 31 55 124q4 46 4 99v798h987v-1036h156v-410h-159v272h-1041q-8 -1 -15 -3v-269h-159v410h128z" />
    <glyph glyph-name="uni0435" unicode="&#x435;" horiz-adv-x="1036" 
d="M302 1028v-354h610v-139h-610v-393h635v-142h-794v1170h794v-142h-635z" />
    <glyph glyph-name="uni0436" unicode="&#x436;" horiz-adv-x="2130" 
d="M1164 1170v-498h104l482 498h210l-551 -567l615 -603h-220l-536 527h-104v-527h-161v527h-104l-536 -527h-220l615 603l-551 567h210l482 -498h104v498h161z" />
    <glyph glyph-name="uni0437" unicode="&#x437;" horiz-adv-x="1112" 
d="M433 538v140h205q115 0 149 47q25 34 25 125q0 98 -19 148q-10 27 -32.5 39t-71.5 18q-43 4 -154 4t-159.5 -7t-71.5 -27q-36 -30 -36 -153v-68h-151v68q0 196 89 265q64 49 173 57q70 5 163 5q173 0 243 -19q128 -34 164 -137q20 -57 20 -151q0 -163 -49 -222
q-32 -39 -96 -59q65 -16 99 -46q68 -59 68 -227q0 -197 -77 -270q-55 -52 -143 -66q-94 -14 -218 -14q-204 0 -288 28q-110 37 -148 140q-20 54 -20 181v68h154v-68q0 -135 38 -175q24 -24 100 -30q52 -4 199 -4q175 0 215 46q31 36 31 182q0 102 -37 141q-29 31 -79 37
q-34 4 -80 4h-205z" />
    <glyph glyph-name="uni0438" unicode="&#x438;" horiz-adv-x="1321" 
d="M302 1170v-1023l643 1023h234v-1170h-159v1023l-642 -1023h-235v1170h159z" />
    <glyph glyph-name="uni0439" unicode="&#x439;" horiz-adv-x="1321" 
d="M302 1170v-1023l643 1023h234v-1170h-159v1023l-642 -1023h-235v1170h159zM358 1604h111q13 -60 48 -100q60 -67 144 -67q85 0 145 67q35 40 47 100h112q-16 -100 -64 -164q-51 -66 -128 -99q-55 -23 -112 -23q-90 0 -169 55q-109 77 -134 231z" />
    <glyph glyph-name="uni043A" unicode="&#x43a;" horiz-adv-x="1159" 
d="M302 1170v-498h106l482 498h210l-551 -567l615 -603h-220l-536 527h-106v-527h-159v1170h159z" />
    <glyph glyph-name="uni043B" unicode="&#x43b;" horiz-adv-x="1427" 
d="M472 481v-130q0 -102 -11 -157t-39 -96q-48 -68 -130 -93q-68 -21 -190 -21h-11v142h5q121 0 158 23q48 31 55 124q4 46 4 99v798h987v-1170h-159v1032h-668v-551h-1z" />
    <glyph glyph-name="uni043C" unicode="&#x43c;" horiz-adv-x="1598" 
d="M1455 1170v-1170h-159v1023l-421 -1023h-150l-423 1023v-1023h-159v1170h248l407 -999l406 999h251z" />
    <glyph glyph-name="uni043D" unicode="&#x43d;" horiz-adv-x="1271" 
d="M1129 1170v-1170h-159v529h-668v-529h-159v1170h159v-502h668v502h159z" />
    <glyph glyph-name="uni043E" unicode="&#x43e;" horiz-adv-x="1220" 
d="M594 1040q-115 0 -164 -4.5t-82 -18.5q-60 -25 -81 -111q-14 -60 -14 -140v-181q0 -212 4 -252q8 -81 28.5 -122t63.5 -59q38 -16 111 -19q58 -3 151 -3q124 0 177 4.5t85 17.5q60 25 81 112q14 61 14 140v181q0 212 -4 252q-8 82 -28.5 122.5t-63.5 58.5q-39 16 -114 19
q-61 3 -164 3zM625 1186q131 0 199 -8.5t119 -30.5q148 -64 176 -286q8 -60 8 -218q0 -270 -9 -340q-15 -114 -52 -177t-110 -98q-74 -36 -192 -41q-61 -3 -154 -3q-157 0 -223.5 8.5t-122.5 35.5q-105 52 -141 176q-25 86 -27 203q-2 76 -2 230q0 162 8 225q28 220 176 285
q66 29 173 35q69 4 174 4z" />
    <glyph glyph-name="uni043F" unicode="&#x43f;" horiz-adv-x="1271" 
d="M1129 1170v-1170h-159v1032h-668v-1032h-159v1170h986z" />
    <glyph glyph-name="uni0440" unicode="&#x440;" horiz-adv-x="1121" 
d="M143 0v1170h524q112 0 159 -5.5t87 -23.5q146 -66 146 -336q0 -148 -40 -224q-52 -97 -160 -123q-38 -9 -212 -11h-345v-447h-159zM302 589h320q147 0 198 18q54 20 71 84q9 32 9 96q0 121 -15 169q-17 52 -78 65q-26 6 -144 7h-361v-439z" />
    <glyph glyph-name="uni0441" unicode="&#x441;" horiz-adv-x="1151" 
d="M917 412h159v-58q1 -145 -22 -207q-46 -127 -205 -153q-60 -10 -301 -10q-108 0 -154 4.5t-91 20.5q-176 59 -199 311q-10 116 -10 249q0 273 13 358q21 136 143 204q76 43 203 51q62 4 225 4q154 0 215 -20q138 -45 166 -200q10 -57 10 -144q0 -10 -1 -32h-157
q-1 39 -1 51q-2 142 -48 175q-40 29 -185 29q-192 0 -276 -11q-52 -7 -80.5 -29.5t-43.5 -68.5q-16 -50 -16 -166q0 -412 22 -514q13 -66 48 -93q40 -31 130 -35q55 -2 118 -2q145 0 212.5 9.5t92.5 33.5q35 34 35 153q0 39 -2 90z" />
    <glyph glyph-name="uni0442" unicode="&#x442;" horiz-adv-x="1007" 
d="M584 1019v-1019h-159v1019h-387v151h930v-151h-384z" />
    <glyph glyph-name="uni0443" unicode="&#x443;" horiz-adv-x="1067" 
d="M478 472l-477 698h187l367 -552l322 552h190q-611 -1031 -639 -1072q-48 -68 -130 -93q-35 -11 -164 -16l1 137q93 3 125 23q48 31 218 323z" />
    <glyph glyph-name="uni0444" unicode="&#x444;" horiz-adv-x="1935" 
d="M893 228h-338q-174 2 -212 11q-109 26 -160 123q-40 76 -40 225q0 270 146 336q40 18 87 23.5t159 5.5h358v218h166v-218h358q112 0 159 -5.5t87 -23.5q146 -66 146 -336q0 -149 -40 -225q-51 -97 -160 -123q-38 -9 -212 -11h-338v-228h-166v228zM1059 810v-440h313
q147 0 198 18q55 20 71 84q9 33 9 97q0 121 -15 168q-17 53 -78 66q-26 6 -144 7h-354zM893 370v440h-354q-118 -1 -144 -7q-61 -13 -78 -66q-15 -47 -15 -168q0 -64 9 -97q16 -64 71 -84q51 -18 198 -18h313z" />
    <glyph glyph-name="uni0445" unicode="&#x445;" horiz-adv-x="1101" 
d="M1073 1170l-390 -565l418 -605h-190l-353 506l-361 -506h-196l433 605l-401 565h194l331 -469l326 469h189z" />
    <glyph glyph-name="uni0446" unicode="&#x446;" horiz-adv-x="1400" 
d="M1109 0h-966v1170h159v-1032h668v1032h159v-1029h139v-410h-159v269z" />
    <glyph glyph-name="uni0447" unicode="&#x447;" horiz-adv-x="1121" 
d="M900 1028h-21v142h180v-1170h-159v447h-345q-174 2 -212 11q-108 26 -160 123q-28 53 -36 142q-2 19 -3 40h4v265h-21v142h180v-407h-5q2 -46 9 -72q17 -64 71 -84q51 -18 198 -18h320v439z" />
    <glyph glyph-name="uni0448" unicode="&#x448;" horiz-adv-x="1663" 
d="M143 0v1170h159v-1028h443v1028h167v-1028h443v1028h159v-1170h-1371z" />
    <glyph glyph-name="uni0449" unicode="&#x449;" horiz-adv-x="1725" 
d="M1443 0h-1300v1170h159v-1028h443v1028h167v-1028h443v1028h159v-1029h81v-383h-152v242z" />
    <glyph glyph-name="uni044A" unicode="&#x44a;" horiz-adv-x="1487" 
d="M642 142h361q118 1 144 7q61 13 78 65q15 48 15 169q0 64 -9 96q-17 64 -71 84q-51 18 -198 18h-320v-439zM642 723h345q174 -2 212 -11q108 -26 160 -123q40 -76 40 -224q0 -270 -146 -336q-40 -18 -87 -23.5t-159 -5.5h-524v1002h-393v168h552v-447z" />
    <glyph glyph-name="uni044B" unicode="&#x44b;" horiz-adv-x="1515" 
d="M302 142h361q118 1 144 7q61 13 78 65q15 48 15 169q0 64 -9 96q-17 64 -71 84q-51 18 -198 18h-320v-439zM302 1170v-447h345q174 -2 212 -11q108 -26 160 -123q40 -76 40 -224q0 -270 -146 -336q-40 -18 -87 -23.5t-159 -5.5h-524v1170h159zM1190 0v1170h159v-1170
h-159z" />
    <glyph glyph-name="uni044C" unicode="&#x44c;" horiz-adv-x="1121" 
d="M302 142h361q118 1 144 7q61 13 78 65q15 48 15 169q0 64 -9 96q-17 64 -71 84q-51 18 -198 18h-320v-439zM302 1170v-447h345q174 -2 212 -11q108 -26 160 -123q40 -76 40 -224q0 -270 -146 -336q-40 -18 -87 -23.5t-159 -5.5h-524v1170h159z" />
    <glyph glyph-name="uni044D" unicode="&#x44d;" horiz-adv-x="1151" 
d="M342 510v123h566q1 64 1 137q0 116 -16 166q-15 46 -43.5 68.5t-80.5 29.5q-84 11 -276 11q-145 0 -185 -29q-46 -33 -48 -175q0 -12 -1 -51h-157q-1 22 -1 32q0 87 10 144q28 155 166 200q61 20 215 20q163 0 225 -4q127 -8 203 -51q122 -68 143 -204q13 -85 13 -358
q0 -133 -10 -249q-23 -252 -199 -311q-45 -16 -91 -20.5t-154 -4.5q-241 0 -301 10q-159 26 -205 153q-23 62 -22 207v58h159q-2 -51 -2 -90q0 -119 35 -153q25 -24 92.5 -33.5t212.5 -9.5q63 0 118 2q90 4 130 35q35 27 48 93q14 65 19 254h-564z" />
    <glyph glyph-name="uni044E" unicode="&#x44e;" horiz-adv-x="1791" 
d="M1117 1040q-115 0 -164 -4.5t-82 -18.5q-60 -25 -81 -111q-14 -60 -14 -140v-181q0 -212 4 -252q8 -81 28.5 -122t63.5 -59q38 -16 111 -19q58 -3 151 -3q124 0 177 4.5t85 17.5q60 25 81 112q14 61 14 140v181q0 212 -4 252q-8 82 -28.5 122.5t-63.5 58.5
q-39 16 -114 19q-61 3 -164 3zM617 529h-315v-529h-159v1170h159v-502h315q1 137 8 194q28 220 176 285q66 29 173 35q69 4 174 4q131 0 199 -8.5t119 -30.5q148 -64 176 -286q8 -60 8 -218q0 -270 -9 -340q-15 -114 -52 -177t-110 -98q-74 -36 -192 -41q-61 -3 -154 -3
q-157 0 -223.5 8.5t-122.5 35.5q-105 52 -141 176q-25 86 -27 203q-1 46 -2 122z" />
    <glyph glyph-name="uni044F" unicode="&#x44f;" horiz-adv-x="1193" 
d="M923 0v459h-404q-101 2 -152 -35q-49 -40 -49 -148v-276h-159v306q1 211 173 222q-109 10 -150 84q-39 68 -39 218q0 91 15 147q26 94 97 140q81 53 237 53h590v-1170h-159zM923 1028h-432q-126 0 -161 -49q-28 -40 -28 -195q0 -114 61 -151q53 -32 172 -32h388v427z" />
    <glyph glyph-name="uni0451" unicode="&#x451;" horiz-adv-x="1036" 
d="M302 1028v-354h610v-139h-610v-393h635v-142h-794v1170h794v-142h-635zM425 1521v-155h-184v155h184zM840 1521v-155h-184v155h184z" />
    <glyph glyph-name="endash" unicode="&#x2013;" horiz-adv-x="1109" 
d="M96 645h918v-152h-918v152z" />
    <glyph glyph-name="emdash" unicode="&#x2014;" horiz-adv-x="1647" 
d="M25 645h1609v-152h-1620z" />
    <glyph glyph-name="quoteleft" unicode="&#x2018;" horiz-adv-x="454" 
d="M123 956v228q0 111 26 151q39 62 132 62q18 0 50 -3v-87q-53 -3 -74 -20q-28 -21 -28 -77q0 -14 1 -43h79v-211h-186z" />
    <glyph glyph-name="quoteright" unicode="&#x2019;" horiz-adv-x="454" 
d="M331 1365v-229q0 -111 -26 -151q-39 -62 -133 -62q-18 0 -49 2v88q54 3 75 19q28 21 28 76q0 16 -2 45h-78v212h185z" />
    <glyph glyph-name="quotesinglbase" unicode="&#x201a;" horiz-adv-x="454" 
d="M331 212v-228q0 -111 -26 -152q-38 -62 -133 -62q-18 0 -49 2v88q53 3 75 19q28 21 28 76q0 15 -2 45h-78v212h185z" />
    <glyph glyph-name="quotedblleft" unicode="&#x201c;" horiz-adv-x="782" 
d="M451 956v228q0 110 25 151q39 62 132 62q19 0 51 -3v-87q-53 -3 -75 -20q-28 -21 -28 -75q0 -15 2 -45h78v-211h-185zM123 956v228q0 111 26 151q39 62 132 62q18 0 50 -3v-87q-53 -3 -74 -20q-28 -21 -28 -77q0 -14 1 -43h79v-211h-186z" />
    <glyph glyph-name="quotedblright" unicode="&#x201d;" horiz-adv-x="782" 
d="M331 1365v-229q0 -111 -26 -151q-39 -62 -133 -62q-18 0 -49 2v88q54 3 75 19q28 21 28 76q0 16 -2 45h-78v212h185zM659 1365v-229q0 -111 -26 -151q-38 -62 -132 -62q-19 0 -50 2v88q54 3 75 19q28 22 28 77q0 15 -2 44h-78v212h185z" />
    <glyph glyph-name="quotedblbase" unicode="&#x201e;" horiz-adv-x="782" 
d="M331 212v-228q0 -111 -26 -152q-38 -62 -133 -62q-18 0 -49 2v88q53 3 75 19q28 21 28 76q0 15 -2 45h-78v212h185zM659 212v-228q0 -111 -26 -152q-38 -62 -133 -62q-18 0 -49 2v88q53 3 75 19q28 22 28 77q0 15 -2 44h-78v212h185z" />
    <glyph glyph-name="dagger" unicode="&#x2020;" horiz-adv-x="909" 
d="M528 1365v-302h306v-136h-306v-1122h-146v1122h-307v136h307v302h146z" />
    <glyph glyph-name="daggerdbl" unicode="&#x2021;" horiz-adv-x="909" 
d="M528 1365v-302h306v-136h-306v-684h306v-136h-306v-302h-146v302h-307v136h307v684h-307v136h307v302h146z" />
    <glyph glyph-name="bullet" unicode="&#x2022;" horiz-adv-x="1365" 
d="M689 855q113 0 196 -83q84 -83 84 -201t-84 -201q-82 -83 -200 -83t-200 83q-84 83 -84 200q0 121 84 202q85 83 204 83z" />
    <glyph glyph-name="ellipsis" unicode="&#x2026;" horiz-adv-x="1292" 
d="M308 212v-212h-185v212h185zM739 212v-212h-185v212h185zM1170 212v-212h-185v212h185z" />
    <glyph glyph-name="perthousand" unicode="&#x2030;" horiz-adv-x="2633" 
d="M433 1196q142 0 199 -15q106 -29 135 -111q16 -46 16 -237q0 -176 -12 -224q-18 -74 -87 -106q-60 -28 -134 -31q-52 -3 -124 -3q-150 0 -207 15q-106 29 -135 111q-16 46 -16 237q0 175 12 224q18 74 87 106q61 28 134 31q54 3 132 3zM423 1077q-110 0 -152 -9
q-59 -12 -66 -89q-2 -18 -4 -146q2 -129 4 -147q7 -77 66 -89q42 -9 155 -9q112 0 154 9q59 12 66 89q2 18 4 146q-2 129 -4 147q-8 77 -66 89q-42 9 -157 9zM1299 1188l-654 -1188h-131l649 1188h136zM1395 718q141 0 199 -15q106 -29 135 -111q16 -46 16 -237
q0 -175 -12 -223q-18 -74 -87 -106q-60 -28 -134 -31q-52 -3 -124 -3q-150 0 -207 15q-106 29 -135 111q-16 46 -16 236q0 175 12 224q18 75 87 106q61 28 134 31q54 3 132 3zM1385 599q-110 0 -152 -9q-59 -12 -66 -89q-2 -18 -4 -146q2 -129 4 -146q7 -77 66 -89
q42 -9 155 -9q112 0 154 9q59 12 66 89q2 18 4 146q-2 128 -4 146q-8 77 -66 89q-42 9 -157 9zM2214 718q142 0 199 -15q106 -29 135 -111q16 -46 16 -237q0 -175 -12 -223q-18 -74 -87 -106q-60 -28 -134 -31q-52 -3 -124 -3q-150 0 -207 15q-106 29 -135 111
q-16 46 -16 236q0 175 12 224q18 75 87 106q61 28 134 31q54 3 132 3zM2204 599q-109 0 -152 -9q-58 -12 -66 -89q-2 -18 -4 -146q2 -129 4 -146q8 -77 66 -89q43 -9 155 -9t154 9q59 12 66 89q2 18 4 146q-2 128 -4 146q-8 77 -66 89q-42 9 -157 9z" />
    <glyph glyph-name="guilsinglleft" unicode="&#x2039;" horiz-adv-x="597" 
d="M264 600l209 -404l-113 -75l-251 479l223 473l120 -74z" />
    <glyph glyph-name="guilsinglright" unicode="&#x203a;" horiz-adv-x="597" 
d="M487 576l-251 -480l-113 76l209 404l-187 399l120 73z" />
    <glyph glyph-name="franc" unicode="&#x20a3;" horiz-adv-x="1324" 
d="M307 1048v-377h308v-138h-308v-533h-157v1188h623v-140h-466zM728 724h146v-50q65 69 186 69q216 0 216 -242q0 -28 -2 -73h-144q2 56 2 85q0 67 -34 87q-26 15 -65 15q-109 0 -141 -77q-18 -43 -18 -153v-385h-146v724z" />
    <glyph glyph-name="Euro" unicode="&#x20ac;" horiz-adv-x="1011" 
d="M832 140l80 -115q-122 -63 -268 -67t-221 26q-175 66 -201 322q-8 74 -7 151h-117l29 108h81v101h-108l27 109h88q1 87 11 175q24 185 144 260q79 52 216 54t281 -48l-65 -118q-57 18 -126 29t-147 3q-58 -12 -87 -47t-44 -86q-17 -56 -22 -221h394l-35 -108h-361v-103
h320l-39 -111h-281q3 -118 21 -208q24 -84 68 -119t129 -40q74 -1 123 7.5t117 45.5z" />
    <glyph glyph-name="trademark" unicode="&#x2122;" horiz-adv-x="1766" 
d="M470 1257v-670h-119v670h-224v108h565v-108h-222zM1638 1365v-778h-120v591l-227 -591h-115l-228 591v-591h-119v778h171l232 -605l232 605h174z" />
    <glyph glyph-name="Omega" unicode="&#x2126;" horiz-adv-x="1365" 
d="M57 0v135h375q-378 218 -378 607q0 305 216 500q174 156 411 156q246 0 422 -162q100 -92 154 -220.5t54 -273.5q0 -390 -378 -607h375v-135h-533v126q188 105 284 255t96 339q0 246 -158 407q-131 134 -312 134q-185 0 -317 -133q-158 -159 -158 -409q0 -382 380 -593
v-126h-533z" />
    <glyph glyph-name="partialdiff" unicode="&#x2202;" 
d="M177 1246l19 125q168 -24 280 -71q258 -110 384 -363q99 -198 99 -442q0 -218 -100 -350q-68 -89 -174 -134q-84 -36 -177 -36q-187 0 -313 135q-130 138 -130 332q0 155 89 277q70 95 181 139q79 31 163 31q132 0 211 -65q23 -19 88 -90l-9 22q-51 134 -77 175
q-95 140 -248 224q-123 67 -286 91zM520 771q-106 0 -189 -67q-57 -46 -90 -117.5t-33 -150.5q0 -149 100 -248q88 -87 209 -87q104 0 185 70q114 99 114 273q0 158 -95 248q-83 79 -201 79z" />
    <glyph glyph-name="Delta" unicode="&#x2206;" horiz-adv-x="1273" 
d="M13 0l544 1365h159l545 -1365h-1248zM214 135h843l-420 1063z" />
    <glyph glyph-name="product" unicode="&#x220f;" horiz-adv-x="1365" 
d="M55 1536h1255v-127h-151v-1794h151v-127h-447v127h155v1794h-671v-1794h153v-127h-445v127h152v1794h-152v127z" />
    <glyph glyph-name="summation" unicode="&#x2211;" horiz-adv-x="1365" 
d="M1223 1536v-469h-141l-15 325h-825l511 -840l-510 -922h843l8 328h148v-470h-1172v165l500 899l-500 822v162h1153z" />
    <glyph glyph-name="minus" unicode="&#x2212;" horiz-adv-x="1079" 
d="M66 638h946v-129h-946v129z" />
    <glyph glyph-name="uni2215" unicode="&#x2215;" horiz-adv-x="320" 
d="M552 1188l-653 -1188h-131l649 1188h135z" />
    <glyph glyph-name="uni2219" unicode="&#x2219;" horiz-adv-x="431" 
d="M308 680v-212h-185v212h185z" />
    <glyph glyph-name="radical" unicode="&#x221a;" horiz-adv-x="1365" 
d="M1365 1693v-130h-395l-464 -1563h-168l-175 603h-163v130h260l158 -537l438 1497h509z" />
    <glyph glyph-name="infinity" unicode="&#x221e;" horiz-adv-x="1365" 
d="M685 495q-52 -74 -95 -119q-107 -112 -251 -112q-140 0 -226 98q-74 86 -74 216t80 213q87 91 221 91q185 0 341 -230q50 72 94 118q110 112 252 112q144 0 230 -102q70 -83 70 -208q0 -136 -83 -220q-86 -87 -217 -87q-135 0 -246 110q-46 46 -96 120zM741 574
q36 -57 69 -96q95 -111 206 -111q83 0 138 57q56 59 56 150q0 98 -65 156q-56 49 -131 49q-116 0 -212 -119q-12 -16 -37 -50.5t-24 -35.5zM625 572q-36 57 -69 96q-95 111 -208 111q-83 0 -137 -57q-55 -58 -55 -150q0 -99 65 -156q55 -49 131 -49q116 0 212 119
q12 15 37 50.5t24 35.5z" />
    <glyph glyph-name="integral" unicode="&#x222b;" 
d="M200 -490l32 145q44 -21 81 -21q79 0 102 60q14 34 14 193v1223q0 205 17 267q22 78 99 124q60 35 147 35q46 0 131 -22l-33 -145q-46 21 -82 21q-73 0 -99 -54q-16 -36 -16 -156v-1304q0 -143 -10 -199q-20 -104 -119 -151q-79 -37 -168 -37q-29 0 -96 21z" />
    <glyph glyph-name="approxequal" unicode="&#x2248;" 
d="M109 606l-87 60q41 84 81 132q82 99 196 99q76 0 232 -78q89 -45 121 -56q43 -15 78 -15q67 0 117 51q34 34 69 93l87 -59q-44 -90 -86 -138q-80 -94 -190 -94q-52 0 -125 30q-37 16 -108 51q-138 68 -203 68t-117 -55q-31 -32 -65 -89zM109 256l-87 59q41 84 81 132
q83 99 196 99q76 0 232 -78q91 -45 121 -56q43 -14 79 -14q66 0 116 51q34 34 69 93l87 -60q-44 -90 -86 -138q-80 -94 -190 -94q-52 0 -125 30q-39 17 -108 51q-82 40 -114 51q-49 17 -89 17q-65 0 -117 -54q-31 -33 -65 -89z" />
    <glyph glyph-name="notequal" unicode="&#x2260;" horiz-adv-x="1079" 
d="M625 809l132 189l106 -74l-80 -115h229v-129h-320l-149 -213h469v-129h-559l-132 -189l-106 74l80 115h-229v129h320l149 213h-469v129h559z" />
    <glyph glyph-name="lessequal" unicode="&#x2264;" 
d="M955 1105v-154l-709 -277l709 -276v-154l-887 360v141zM955 185v-143h-887v143h887z" />
    <glyph glyph-name="greaterequal" unicode="&#x2265;" 
d="M68 1105l887 -360v-141l-887 -360v154l709 276l-709 277v154zM68 185h887v-143h-887v143z" />
    <glyph glyph-name="lozenge" unicode="&#x25ca;" horiz-adv-x="1365" 
d="M683 1419l532 -736l-532 -736l-532 736zM683 1237l-404 -554l404 -555l403 555z" />
    <glyph glyph-name="apple" unicode="&#xf000;" horiz-adv-x="1365" 
d="M983 1416q0 -140 -77 -237q-92 -114 -227 -118q3 147 83 239q91 104 221 116zM1276 935q-63 -48 -94 -86q-71 -88 -71 -199q0 -145 107 -243q39 -36 97 -62q-66 -161 -140 -257q-109 -143 -204 -143q-50 0 -132 38q-49 23 -106 23q-73 0 -120 -17q-14 -6 -58 -24
q-51 -22 -94 -22q-52 0 -111.5 44.5t-111.5 122.5q-172 255 -172 526q0 94 32.5 182t89.5 151q99 108 259 108q65 0 173 -41q56 -21 86 -21t119 33q91 33 155 33q190 0 296 -146z" />
    <glyph glyph-name="fi" unicode="&#xf001;" horiz-adv-x="1393" 
d="M302 1028v-365h587v-139h-587v-524h-159v1170h761v-142h-602zM1250 1170v-1170h-159v1170h159z" />
    <glyph glyph-name="fl" unicode="&#xf002;" horiz-adv-x="1905" 
d="M302 1028v-365h587v-139h-587v-524h-159v1170h761v-142h-602zM1250 1170v-1019h618v-151h-777v1170h159z" />
    <glyph glyph-name="Odieresis" horiz-adv-x="1534" 
d="M625 1186q131 0 199 -8.5t119 -30.5q148 -64 176 -286q8 -60 8 -218q0 -270 -9 -340q-15 -114 -52 -177t-110 -98q-74 -36 -192 -41q-61 -3 -154 -3q-157 0 -223.5 8.5t-122.5 35.5q-105 52 -141 176q-25 86 -27 203q-2 76 -2 230q0 162 8 225q28 220 176 285
q66 29 173 35q69 4 174 4zM594 1040q-115 0 -164 -4.5t-82 -18.5q-60 -25 -81 -111q-14 -60 -14 -140v-181q0 -212 4 -252q8 -81 28.5 -122t63.5 -59q38 -16 111 -19q58 -3 151 -3q124 0 177 4.5t85 17.5q60 25 81 112q14 61 14 140v181q0 212 -4 252q-8 82 -28.5 122.5
t-63.5 58.5q-39 16 -114 19q-61 3 -164 3zM651 1718v-155h-184v155h184zM1066 1718v-155h-184v155h184z" />
    <glyph glyph-name="Egrave" horiz-adv-x="1268" 
d="M302 1028v-354h610v-139h-610v-393h635v-142h-794v1170h794v-142h-635zM421 1740l375 -101l-20 -100l-389 66z" />
    <glyph glyph-name="Yacute" horiz-adv-x="1365" 
d="M1067 1170l-459 -683v-487h-159v487l-448 683h187l345 -516l344 516h190zM916 1740l34 -135l-390 -66l-19 100z" />
    <glyph glyph-name="Idieresis" horiz-adv-x="489" 
d="M302 1170v-1170h-159v1170h159zM209 1718v-155h-176v155h176zM460 1718v-155h-176v155h176z" />
    <glyph glyph-name="Udieresis" horiz-adv-x="1550" 
d="M949 1170h159v-813q0 -150 -33 -218q-49 -103 -176 -137q-69 -18 -267 -18q-141 0 -202.5 6t-108.5 24q-105 40 -145 125q-33 71 -33 218v813h159v-813q0 -124 21 -161q27 -46 105 -61q47 -9 181 -9q197 0 258 20q56 18 72 90q10 40 10 121v813zM659 1718v-155h-184v155
h184zM1074 1718v-155h-184v155h184z" />
    <glyph glyph-name="Otilde" horiz-adv-x="1534" 
d="M625 1186q131 0 199 -8.5t119 -30.5q148 -64 176 -286q8 -60 8 -218q0 -270 -9 -340q-15 -114 -52 -177t-110 -98q-74 -36 -192 -41q-61 -3 -154 -3q-157 0 -223.5 8.5t-122.5 35.5q-105 52 -141 176q-25 86 -27 203q-2 76 -2 230q0 162 8 225q28 220 176 285
q66 29 173 35q69 4 174 4zM594 1040q-115 0 -164 -4.5t-82 -18.5q-60 -25 -81 -111q-14 -60 -14 -140v-181q0 -212 4 -252q8 -81 28.5 -122t63.5 -59q38 -16 111 -19q58 -3 151 -3q124 0 177 4.5t85 17.5q60 25 81 112q14 61 14 140v181q0 212 -4 252q-8 82 -28.5 122.5
t-63.5 58.5q-39 16 -114 19q-61 3 -164 3zM1031 1745l89 -57q-97 -157 -214 -157q-52 0 -159 47q-95 42 -139 42q-38 0 -62 -26q-15 -17 -37 -58l-95 53q34 61 59 90q56 65 139 65q47 0 155 -46q104 -45 142 -45q63 0 122 92z" />
    <glyph glyph-name="Iacute" horiz-adv-x="489" 
d="M332 1365v-1560h-175v1560h175z" />
    <glyph glyph-name="Gbreve" horiz-adv-x="1497" 
d="M406 1783h111q13 -61 55 -100q73 -67 169 -67q95 0 168 67q42 39 55 100h111q-14 -98 -68 -163q-103 -123 -266 -123q-176 0 -278 137q-44 59 -57 149zM577 597h518q5 -58 5 -128q0 -128 -3 -185q-12 -208 -159 -269q-76 -31 -343 -31q-178 0 -260 18.5t-139 70.5
q-88 81 -98 241q-4 64 -3 162q0 20 -1 124v48q0 157 12.5 239.5t45.5 146.5q59 115 208 142q59 10 219 10q180 0 242 -4.5t108 -19.5q152 -53 165 -229q3 -31 3 -124h-158q-1 131 -21 174q-21 45 -112 55q-65 7 -241 7q-144 0 -207 -18q-71 -20 -91 -118q-11 -51 -14 -321
q1 -212 3 -249q4 -90 28.5 -135.5t77.5 -59.5q67 -19 292 -19q117 0 174.5 11.5t79.5 39.5q33 42 33 220q0 20 -1 59h-363v142z" />
    <glyph glyph-name="AE" horiz-adv-x="1729" 
d="M1018 1028v-357h586v-139h-586v-390h612v-142h-771v239h-522l-130 -239h-188l651 1170h960v-142h-612zM859 381v647h-94l-351 -647h445z" />
    <glyph glyph-name="Aring" horiz-adv-x="1442" 
d="M858 242h-577l-92 -242h-169l444 1170h202l453 -1170h-168zM806 376l-239 625l-235 -625h474zM724 1833q76 0 130 -59q46 -51 46 -120q0 -80 -59 -133q-52 -46 -120 -46q-80 0 -134 59q-46 51 -46 121q0 78 59 132q51 46 124 46zM719 1755q-43 0 -74 -33q-26 -29 -26 -68
q0 -45 34 -75q28 -26 68 -26q45 0 75 33q26 29 26 69q0 44 -34 74q-28 26 -69 26z" />
    <glyph glyph-name="Adieresis" horiz-adv-x="1442" 
d="M1116 136h-790l-119 -331h-187l571 1560h248l582 -1560h-184zM1064 276l-346 946l-342 -946h688zM605 1718v-155h-184v155h184zM1020 1718v-155h-184v155h184z" />
    <glyph glyph-name="Igrave" horiz-adv-x="489" 
d="M302 1170v-1170h-159v1170h159zM15 1740l375 -101l-20 -100l-389 66z" />
    <glyph glyph-name="Eacute" horiz-adv-x="1268" 
d="M302 1028v-354h610v-139h-610v-393h635v-142h-794v1170h794v-142h-635zM887 1740l34 -135l-390 -66l-19 100z" />
    <glyph glyph-name="Ccaron" horiz-adv-x="1444" 
d="M718 1492l-367 208l43 88l324 -142l309 142l49 -88zM917 412h159v-58q1 -145 -22 -207q-46 -127 -205 -153q-60 -10 -301 -10q-108 0 -154 4.5t-91 20.5q-176 59 -199 311q-10 116 -10 249q0 273 13 358q21 136 143 204q76 43 203 51q62 4 225 4q154 0 215 -20
q138 -45 166 -200q10 -57 10 -144q0 -10 -1 -32h-157q-1 39 -1 51q-2 142 -48 175q-40 29 -185 29q-192 0 -276 -11q-52 -7 -80.5 -29.5t-43.5 -68.5q-16 -50 -16 -166q0 -412 22 -514q13 -66 48 -93q40 -31 130 -35q55 -2 118 -2q145 0 212.5 9.5t92.5 33.5q35 34 35 153
q0 39 -2 90z" />
    <glyph glyph-name="Cacute" horiz-adv-x="1444" 
d="M947 1740l34 -135l-390 -66l-19 100zM917 412h159v-58q1 -145 -22 -207q-46 -127 -205 -153q-60 -10 -301 -10q-108 0 -154 4.5t-91 20.5q-176 59 -199 311q-10 116 -10 249q0 273 13 358q21 136 143 204q76 43 203 51q62 4 225 4q154 0 215 -20q138 -45 166 -200
q10 -57 10 -144q0 -10 -1 -32h-157q-1 39 -1 51q-2 142 -48 175q-40 29 -185 29q-192 0 -276 -11q-52 -7 -80.5 -29.5t-43.5 -68.5q-16 -50 -16 -166q0 -412 22 -514q13 -66 48 -93q40 -31 130 -35q55 -2 118 -2q145 0 212.5 9.5t92.5 33.5q35 34 35 153q0 39 -2 90z" />
    <glyph glyph-name="Aacute" horiz-adv-x="1442" 
d="M858 242h-577l-92 -242h-169l444 1170h202l453 -1170h-168zM806 376l-239 625l-235 -625h474zM953 1740l34 -135l-390 -66l-19 100z" />
    <glyph glyph-name="Uacute" horiz-adv-x="1550" 
d="M949 1170h159v-813q0 -150 -33 -218q-49 -103 -176 -137q-69 -18 -267 -18q-141 0 -202.5 6t-108.5 24q-105 40 -145 125q-33 71 -33 218v813h159v-813q0 -124 21 -161q27 -46 105 -61q47 -9 181 -9q197 0 258 20q56 18 72 90q10 40 10 121v813zM1007 1740l34 -135
l-390 -66l-19 100z" />
    <glyph glyph-name="Scaron" horiz-adv-x="1368" 
d="M988 830h-159q0 83 -7 117q-13 66 -82 85q-44 12 -157 12q-159 0 -205 -8q-86 -14 -110 -77q-14 -38 -14 -100q0 -79 19 -121q22 -47 109 -58q32 -4 189 -10q174 -7 237 -19q126 -26 172 -123q29 -62 29 -192q0 -189 -62 -259q-64 -72 -183 -84q-91 -9 -246 -9
q-188 0 -252 20q-150 48 -172 231q-5 39 -7 148h159v-44q1 -86 13 -126.5t43 -61.5q29 -20 92 -22q69 -3 164 -3q130 0 184 10t78 39q30 35 30 176q0 68 -15 101q-20 47 -99 57q-39 5 -197 11q-157 7 -198 12q-131 19 -193 100q-53 68 -53 210q0 204 91 274q70 54 181 64
q79 6 183 6q199 0 273 -25q151 -50 164 -240q1 -21 1 -91zM686 1492l-367 208l43 88l324 -142l309 142l49 -88z" />
    <glyph glyph-name="Ydieresis" horiz-adv-x="1365" 
d="M1067 1170l-459 -683v-487h-159v487l-448 683h187l345 -516l344 516h190zM567 1718v-155h-184v155h184zM982 1718v-155h-184v155h184z" />
    <glyph glyph-name="Ntilde" horiz-adv-x="1647" 
d="M1179 1170v-1170h-235l-642 1023v-1023h-159v1170h234l643 -1023v1023h159zM1088 1745l89 -57q-97 -157 -214 -157q-52 0 -159 47q-95 42 -139 42q-38 0 -62 -26q-15 -17 -37 -58l-95 53q34 61 59 90q56 65 139 65q47 0 155 -46q104 -45 142 -45q63 0 122 92z" />
    <glyph glyph-name="sfthyphen" horiz-adv-x="513" 
d="M17 645h483v-152h-486z" />
    <glyph glyph-name="Oacute" horiz-adv-x="1534" 
d="M625 1186q131 0 199 -8.5t119 -30.5q148 -64 176 -286q8 -60 8 -218q0 -270 -9 -340q-15 -114 -52 -177t-110 -98q-74 -36 -192 -41q-61 -3 -154 -3q-157 0 -223.5 8.5t-122.5 35.5q-105 52 -141 176q-25 86 -27 203q-2 76 -2 230q0 162 8 225q28 220 176 285
q66 29 173 35q69 4 174 4zM594 1040q-115 0 -164 -4.5t-82 -18.5q-60 -25 -81 -111q-14 -60 -14 -140v-181q0 -212 4 -252q8 -81 28.5 -122t63.5 -59q38 -16 111 -19q58 -3 151 -3q124 0 177 4.5t85 17.5q60 25 81 112q14 61 14 140v181q0 212 -4 252q-8 82 -28.5 122.5
t-63.5 58.5q-39 16 -114 19q-61 3 -164 3zM1000 1740l34 -135l-390 -66l-19 100z" />
    <glyph glyph-name="Edieresis" horiz-adv-x="1268" 
d="M302 1028v-354h610v-139h-610v-393h635v-142h-794v1170h794v-142h-635zM539 1718v-155h-184v155h184zM954 1718v-155h-184v155h184z" />
    <glyph glyph-name="Ograve" horiz-adv-x="1534" 
d="M625 1186q131 0 199 -8.5t119 -30.5q148 -64 176 -286q8 -60 8 -218q0 -270 -9 -340q-15 -114 -52 -177t-110 -98q-74 -36 -192 -41q-61 -3 -154 -3q-157 0 -223.5 8.5t-122.5 35.5q-105 52 -141 176q-25 86 -27 203q-2 76 -2 230q0 162 8 225q28 220 176 285
q66 29 173 35q69 4 174 4zM594 1040q-115 0 -164 -4.5t-82 -18.5q-60 -25 -81 -111q-14 -60 -14 -140v-181q0 -212 4 -252q8 -81 28.5 -122t63.5 -59q38 -16 111 -19q58 -3 151 -3q124 0 177 4.5t85 17.5q60 25 81 112q14 61 14 140v181q0 212 -4 252q-8 82 -28.5 122.5
t-63.5 58.5q-39 16 -114 19q-61 3 -164 3zM534 1740l375 -101l-20 -100l-389 66z" />
    <glyph glyph-name="Ocircumflex" horiz-adv-x="1534" 
d="M625 1186q131 0 199 -8.5t119 -30.5q148 -64 176 -286q8 -60 8 -218q0 -270 -9 -340q-15 -114 -52 -177t-110 -98q-74 -36 -192 -41q-61 -3 -154 -3q-157 0 -223.5 8.5t-122.5 35.5q-105 52 -141 176q-25 86 -27 203q-2 76 -2 230q0 162 8 225q28 220 176 285
q66 29 173 35q69 4 174 4zM594 1040q-115 0 -164 -4.5t-82 -18.5q-60 -25 -81 -111q-14 -60 -14 -140v-181q0 -212 4 -252q8 -81 28.5 -122t63.5 -59q38 -16 111 -19q58 -3 151 -3q124 0 177 4.5t85 17.5q60 25 81 112q14 61 14 140v181q0 212 -4 252q-8 82 -28.5 122.5
t-63.5 58.5q-39 16 -114 19q-61 3 -164 3zM771 1788l358 -208l-49 -88l-309 142l-324 -142l-43 88z" />
    <glyph glyph-name="Ucircumflex" horiz-adv-x="1550" 
d="M949 1170h159v-813q0 -150 -33 -218q-49 -103 -176 -137q-69 -18 -267 -18q-141 0 -202.5 6t-108.5 24q-105 40 -145 125q-33 71 -33 218v813h159v-813q0 -124 21 -161q27 -46 105 -61q47 -9 181 -9q197 0 258 20q56 18 72 90q10 40 10 121v813zM778 1788l358 -208
l-49 -88l-309 142l-324 -142l-43 88z" />
    <glyph glyph-name="nonbreakingspace" horiz-adv-x="616" 
 />
    <glyph glyph-name="Ecircumflex" horiz-adv-x="1268" 
d="M302 1028v-354h610v-139h-610v-393h635v-142h-794v1170h794v-142h-635zM658 1788l358 -208l-49 -88l-309 142l-324 -142l-43 88z" />
    <glyph glyph-name="Agrave" horiz-adv-x="1442" 
d="M858 242h-577l-92 -242h-169l444 1170h202l453 -1170h-168zM806 376l-239 625l-235 -625h474zM488 1740l375 -101l-20 -100l-389 66z" />
    <glyph glyph-name="Zcaron" horiz-adv-x="1380" 
d="M999 1170v-132l-736 -896h751v-142h-951v135l733 893h-713v142h916zM694 1492l-367 208l43 88l324 -142l309 142l49 -88z" />
    <glyph glyph-name="Atilde" horiz-adv-x="1442" 
d="M858 242h-577l-92 -242h-169l444 1170h202l453 -1170h-168zM806 376l-239 625l-235 -625h474zM984 1745l89 -57q-97 -157 -214 -157q-52 0 -159 47q-95 42 -139 42q-38 0 -62 -26q-15 -17 -37 -58l-95 53q34 61 59 90q56 65 139 65q47 0 155 -46q104 -45 142 -45
q63 0 122 92z" />
    <glyph glyph-name="Ugrave" horiz-adv-x="1550" 
d="M949 1170h159v-813q0 -150 -33 -218q-49 -103 -176 -137q-69 -18 -267 -18q-141 0 -202.5 6t-108.5 24q-105 40 -145 125q-33 71 -33 218v813h159v-813q0 -124 21 -161q27 -46 105 -61q47 -9 181 -9q197 0 258 20q56 18 72 90q10 40 10 121v813zM541 1740l375 -101
l-20 -100l-389 66z" />
    <glyph glyph-name="Scedilla" horiz-adv-x="1368" 
d="M700 -309l128 -71l-183 -256l-104 55zM988 830h-159q0 83 -7 117q-13 66 -82 85q-44 12 -157 12q-159 0 -205 -8q-86 -14 -110 -77q-14 -38 -14 -100q0 -79 19 -121q22 -47 109 -58q32 -4 189 -10q174 -7 237 -19q126 -26 172 -123q29 -62 29 -192q0 -189 -62 -259
q-64 -72 -183 -84q-91 -9 -246 -9q-188 0 -252 20q-150 48 -172 231q-5 39 -7 148h159v-44q1 -86 13 -126.5t43 -61.5q29 -20 92 -22q69 -3 164 -3q130 0 184 10t78 39q30 35 30 176q0 68 -15 101q-20 47 -99 57q-39 5 -197 11q-157 7 -198 12q-131 19 -193 100
q-53 68 -53 210q0 204 91 274q70 54 181 64q79 6 183 6q199 0 273 -25q151 -50 164 -240q1 -21 1 -91z" />
    <glyph glyph-name="Acircumflex" horiz-adv-x="1442" 
d="M858 242h-577l-92 -242h-169l444 1170h202l453 -1170h-168zM806 376l-239 625l-235 -625h474zM725 1788l358 -208l-49 -88l-309 142l-324 -142l-43 88z" />
    </font>
</defs>
</svg>
